<svg xmlns="http://www.w3.org/2000/svg" width="25" height="25" fill="none" viewBox="0 0 25 25"><path fill="#fff" fill-rule="evenodd" d="M12.5002 3.12504C7.32249 3.12504 3.12516 7.32237 3.12516 12.5C3.12516 17.6777 7.32249 21.875 12.5002 21.875C17.6778 21.875 21.8752 17.6777 21.8752 12.5C21.8752 7.32237 17.6778 3.12504 12.5002 3.12504ZM2.0835 12.5C2.0835 6.74707 6.7472 2.08337 12.5002 2.08337C18.2531 2.08337 22.9168 6.74707 22.9168 12.5C22.9168 18.253 18.2531 22.9167 12.5002 22.9167C6.7472 22.9167 2.0835 18.253 2.0835 12.5Z" clip-rule="evenodd"/><path fill="#fff" fill-rule="evenodd" d="M12.4998 7.29167C10.1987 7.29167 8.33317 9.15715 8.33317 11.4583C8.33317 13.7595 10.1987 15.625 12.4998 15.625C14.801 15.625 16.6665 13.7595 16.6665 11.4583C16.6665 9.15715 14.801 7.29167 12.4998 7.29167ZM7.2915 11.4583C7.2915 8.58185 9.62335 6.25 12.4998 6.25C15.3763 6.25 17.7082 8.58185 17.7082 11.4583C17.7082 14.3348 15.3763 16.6667 12.4998 16.6667C9.62335 16.6667 7.2915 14.3348 7.2915 11.4583Z" clip-rule="evenodd"/><path fill="#fff" fill-rule="evenodd" d="M12.4998 16.6667C9.84293 16.6667 7.47114 17.9112 5.95158 19.8523L5.13135 19.2102C6.84095 17.0263 9.51083 15.625 12.4998 15.625C15.4112 15.625 18.0148 16.9491 19.7348 19.033L18.9314 19.6961C17.4015 17.8425 15.0883 16.6667 12.4998 16.6667Z" clip-rule="evenodd"/></svg>