<svg xmlns="http://www.w3.org/2000/svg" width="25" height="25" fill="none" viewBox="0 0 25 25"><path fill="#fff" d="M12.5003 22.9167C12.2295 22.9167 11.9691 22.8438 11.7191 22.7083C9.94824 21.6667 4.16699 17.875 4.16699 12.5313V6.26042C4.16699 5.61458 4.57324 5.02083 5.16699 4.79167L11.9378 2.1875C12.292 2.05208 12.6878 2.05208 13.042 2.1875L19.8128 4.79167C20.4274 5.02083 20.8337 5.61458 20.8337 6.26042V12.5313C20.8337 17.875 15.0524 21.6667 13.2816 22.6979C13.0316 22.8438 12.7712 22.9167 12.5003 22.9167ZM12.2503 21.8021C12.4066 21.8958 12.5941 21.8958 12.7503 21.8021C14.4066 20.8333 19.792 17.3229 19.792 12.5313V6.26042C19.792 6.04167 19.6566 5.83333 19.4587 5.76042L12.6878 3.15625C12.5732 3.11458 12.4378 3.11458 12.3232 3.15625L5.55241 5.76042C5.34408 5.83333 5.20866 6.04167 5.20866 6.26042V12.5313C5.20866 17.3229 10.5941 20.8438 12.2503 21.8021Z"/></svg>