<svg width="20" height="20" viewBox="0 0 20 20" fill="none" xmlns="http://www.w3.org/2000/svg">
<path fill-rule="evenodd" clip-rule="evenodd" d="M16.9552 3.0403C16.2346 2.31968 15.0734 2.31968 14.3528 3.0403L3.656 13.7454L2.67752 17.3263L6.2583 16.3479L16.9551 5.64282C17.6757 4.92221 17.6758 3.76091 16.9552 3.0403ZM13.7636 2.45104C14.8096 1.40499 16.4984 1.40499 17.5445 2.45104C18.5905 3.49709 18.5905 5.18591 17.5445 6.23197L6.76959 17.0152C6.71834 17.0665 6.65461 17.1035 6.58467 17.1226L2.19301 18.3226C2.0487 18.362 1.89433 18.3211 1.78855 18.2153C1.68277 18.1095 1.64182 17.9552 1.68125 17.8108L2.88125 13.4192C2.90033 13.3493 2.93727 13.2857 2.98844 13.2345L13.7636 2.45104Z" fill="black"/>
</svg>
