<svg width="40" height="38" viewBox="0 0 40 38" fill="none" xmlns="http://www.w3.org/2000/svg">
<path d="M32.8718 15.1152L32.8695 15.1129C32.538 14.7822 32.0811 14.576 31.5796 14.576H24.4188L24.196 13.3042C24.1945 13.2974 24.1952 13.2884 24.1982 13.2808C24.202 13.2702 24.2081 13.2612 24.2156 13.2536L26.9117 10.6776C27.0869 10.5107 27.1858 10.3038 27.2168 10.0901C27.2387 9.93674 27.2236 9.78042 27.1768 9.63315C27.1307 9.48891 27.0522 9.35523 26.9479 9.24422V9.24271C26.8022 9.09016 26.6036 8.97914 26.3634 8.9444L22.6425 8.41424C22.6214 8.41122 22.6017 8.40367 22.5859 8.39159C22.5738 8.38328 22.564 8.37271 22.5587 8.36289L20.8919 5.05583C20.7877 4.84891 20.6299 4.69937 20.4486 4.60799C20.3059 4.53625 20.1511 4.5 19.9985 4.5C19.846 4.5 19.6904 4.53625 19.5484 4.60724C19.3672 4.69862 19.2086 4.84815 19.1051 5.05508L17.4399 8.36289C17.4346 8.37271 17.4255 8.38328 17.4134 8.39083C17.3976 8.40292 17.3772 8.41047 17.3568 8.415L13.6359 8.9444C13.3965 8.97839 13.1979 9.0894 13.0529 9.24271C12.9471 9.35448 12.8694 9.48891 12.8225 9.6324C12.775 9.77966 12.7606 9.93674 12.7833 10.0901C12.8135 10.3015 12.9109 10.5077 13.0861 10.6753L15.7814 13.2514C15.7905 13.2597 15.7973 13.2702 15.8003 13.2816C15.8026 13.2891 15.8041 13.2974 15.8026 13.3042L15.5806 14.576C14.0596 14.576 8.42042 14.576 8.42042 14.576C7.91745 14.576 7.4598 14.7791 7.12826 15.1107C6.79899 15.4384 6.59508 15.8938 6.59357 16.4036L6.59131 16.4059V31.6701C6.59131 32.1723 6.79673 32.6292 7.12826 32.9608L7.13053 32.963C7.46131 33.2938 7.91821 33.5 8.42042 33.5V33.4977H14.7302V33.5H31.5796C32.0811 33.5 32.538 33.2938 32.8695 32.963H32.8718C33.2026 32.6315 33.4088 32.1739 33.4088 31.6709V16.4059C33.4088 15.9044 33.2026 15.4467 32.8718 15.1152ZM13.6918 9.98734C13.6804 9.97602 13.6737 9.96469 13.6721 9.95487C13.6706 9.94656 13.6714 9.9375 13.6737 9.92995C13.6767 9.92089 13.682 9.91031 13.6903 9.90276H13.6918C13.7061 9.88766 13.728 9.87557 13.7545 9.87255L17.4852 9.3424C17.643 9.31823 17.7918 9.25706 17.9194 9.16568C18.0501 9.07279 18.1588 8.94818 18.2344 8.7994L19.8988 5.48781C19.9064 5.4712 19.9215 5.45836 19.9381 5.45081C19.954 5.4425 19.9751 5.43797 19.997 5.43797C20.0204 5.43797 20.0416 5.4425 20.0574 5.45081C20.074 5.45836 20.0884 5.4712 20.0967 5.48781L21.7627 8.79714V8.79865C21.8382 8.94742 21.947 9.07203 22.0776 9.16568C22.2052 9.2563 22.3548 9.31672 22.5141 9.34164L26.2418 9.8718C26.2698 9.87482 26.2909 9.8869 26.3068 9.90201C26.3151 9.91031 26.3211 9.92089 26.3241 9.92995C26.3257 9.93674 26.3264 9.94581 26.3249 9.95487C26.3241 9.96393 26.3173 9.97375 26.3053 9.98583L23.6092 12.5618C23.4868 12.6797 23.397 12.8224 23.3464 12.9772V12.9787C23.2943 13.1351 23.2822 13.3042 23.3116 13.4734L23.579 14.9966C23.5775 15.0117 23.5767 15.0276 23.5767 15.0435C23.5767 15.1152 23.5933 15.1839 23.622 15.2443L23.9483 17.1082C23.9498 17.1188 23.9483 17.1286 23.9445 17.1361V17.1384C23.94 17.1482 23.9294 17.1596 23.9181 17.1679C23.9037 17.1784 23.8848 17.1867 23.8652 17.1898C23.8395 17.1943 23.8116 17.1905 23.7844 17.1769L20.4524 15.4596C20.3066 15.3848 20.1503 15.3478 19.9978 15.3478C19.8437 15.3478 19.6874 15.3856 19.5431 15.4596L16.2104 17.1769C16.184 17.1905 16.156 17.1943 16.1319 17.1898C16.1115 17.186 16.0933 17.1784 16.079 17.1679C16.0677 17.1603 16.0578 17.149 16.051 17.1369C16.048 17.1286 16.0465 17.118 16.048 17.1059L16.3728 15.2481C16.4037 15.1862 16.4211 15.1167 16.4211 15.0435C16.4211 15.0261 16.4203 15.0095 16.4181 14.9929L16.6839 13.4734C16.7141 13.3042 16.7005 13.1358 16.6499 12.9795V12.978C16.5986 12.8232 16.5102 12.6804 16.3886 12.5634L13.6918 9.98734ZM32.4738 31.6701C32.4738 31.9148 32.3726 32.1391 32.211 32.3022C32.0486 32.4639 31.8251 32.5651 31.5796 32.5651H14.7302V32.5666H8.42042V32.5651C8.17423 32.5651 7.94993 32.4639 7.78831 32.303C7.6267 32.1406 7.52701 31.9163 7.52701 31.6709V16.4059H7.52475C7.52626 16.1551 7.62594 15.9316 7.78529 15.7715C7.94691 15.6099 8.17196 15.5109 8.42042 15.5109H15.4167L15.1667 16.9421C15.1259 17.1747 15.1667 17.3929 15.2619 17.5779V17.5802C15.3344 17.7214 15.4401 17.8423 15.567 17.9344C15.6901 18.0243 15.8343 18.087 15.9853 18.1134C16.1862 18.1481 16.4037 18.1217 16.6091 18.016L19.9411 16.2994C19.9577 16.2903 19.9774 16.2873 19.9993 16.2873C20.0219 16.2873 20.0423 16.2911 20.0582 16.2994L23.3887 18.016C23.5956 18.1224 23.8131 18.1489 24.014 18.1134C24.1658 18.0862 24.3092 18.0243 24.4331 17.9336C24.5585 17.8423 24.6642 17.7214 24.7375 17.5795C24.8334 17.3937 24.8734 17.1739 24.8326 16.9405L24.5826 15.5117H31.5796C31.8258 15.5117 32.0486 15.6129 32.211 15.7737C32.3726 15.9361 32.4731 16.1604 32.4731 16.4059V31.6701H32.4738ZM30.0156 27.163C30.0156 27.4206 29.8057 27.6305 29.5481 27.6305H10.4512C10.1929 27.6305 9.9837 27.4206 9.9837 27.163C9.9837 26.9048 10.1929 26.6948 10.4512 26.6948H29.5481C29.8057 26.6948 30.0156 26.9048 30.0156 27.163ZM30.0156 29.3448C30.0156 29.6031 29.8057 29.8123 29.5481 29.8123H10.4512C10.1929 29.8123 9.9837 29.6031 9.9837 29.3448C9.9837 29.0866 10.1929 28.8774 10.4512 28.8774H29.5481C29.8057 28.8774 30.0156 29.0866 30.0156 29.3448ZM9.98446 22.3909V24.2472C9.98446 24.4843 10.0819 24.7011 10.2382 24.8582L10.2405 24.8604C10.3976 25.0167 10.6135 25.1149 10.8507 25.1149H16.3894C16.628 25.1149 16.8455 25.0167 17.0011 24.8604C17.1582 24.7033 17.2556 24.4858 17.2556 24.2472V20.5338C17.2556 20.2974 17.1589 20.0807 17.0003 19.9229L16.9988 19.9206C16.841 19.765 16.625 19.6676 16.3886 19.6676H10.8499C10.612 19.6676 10.3953 19.765 10.2375 19.9221C10.0811 20.0784 9.9837 20.2959 9.9837 20.5338V22.3909C9.98446 22.3901 9.98446 22.3901 9.98446 22.3909C9.98446 22.3901 9.98446 22.3901 9.98446 22.3909ZM10.9187 22.8576C11.2698 22.8576 11.7464 22.8576 12.0975 22.8576V24.1777H10.9187V22.8576ZM14.2061 24.1785H13.0325V22.3969C13.0325 22.3947 13.0325 22.3924 13.0325 22.3909C13.0325 22.3894 13.0325 22.3864 13.0325 22.3848V20.6026H14.2061V24.1785ZM15.141 24.1785V22.8576H16.3199V24.1785H15.141ZM16.3199 21.9227C15.9695 21.9227 15.4922 21.9227 15.141 21.9227V20.6026H16.3199V21.9227ZM12.0975 20.6026V21.9227H10.9187V20.6026H12.0975ZM30.0156 20.1351C30.0156 20.3934 29.8057 20.6033 29.5481 20.6033H25.1506C24.8923 20.6033 24.6831 20.3934 24.6831 20.1351C24.6831 19.8776 24.8923 19.6676 25.1506 19.6676H29.5481C29.8057 19.6676 30.0156 19.8776 30.0156 20.1351ZM30.0156 22.3176C30.0156 22.5759 29.8057 22.7851 29.5481 22.7851H25.1506C24.8923 22.7851 24.6831 22.5759 24.6831 22.3176C24.6831 22.0593 24.8923 21.8502 25.1506 21.8502H29.5481C29.8057 21.8502 30.0156 22.0593 30.0156 22.3176ZM24.4762 7.04807C24.2851 6.87513 24.2715 6.57909 24.4444 6.38953L25.4156 5.32242C25.5893 5.13135 25.8846 5.11776 26.0742 5.2907C26.2652 5.4644 26.2788 5.75969 26.1059 5.95L25.1347 7.01711C24.9618 7.20818 24.6665 7.22177 24.4762 7.04807ZM27.4819 12.2998L28.5648 12.7121C28.805 12.8035 28.9258 13.0739 28.8352 13.3148C28.7438 13.5549 28.4735 13.6765 28.2326 13.5852L27.1503 13.1728C26.9094 13.0814 26.7886 12.8103 26.88 12.5702C26.9706 12.3285 27.241 12.2077 27.4819 12.2998ZM13.8934 5.95C13.7197 5.75969 13.7341 5.4644 13.9244 5.2907C14.1147 5.11776 14.41 5.13135 14.5829 5.32242L15.5541 6.38953C15.7271 6.57984 15.7135 6.87513 15.5232 7.04807C15.3321 7.22177 15.0376 7.20818 14.8646 7.01711L13.8934 5.95ZM11.1648 13.3148C11.0735 13.0739 11.1935 12.8035 11.4352 12.7121L12.5174 12.2998C12.7583 12.2084 13.0287 12.3285 13.1201 12.5702C13.2115 12.8103 13.0906 13.0814 12.8497 13.1728L11.7668 13.5852C11.5266 13.6765 11.257 13.5549 11.1648 13.3148Z" fill="white"/>
</svg>
