<svg xmlns="http://www.w3.org/2000/svg" width="20" height="20" fill="none" viewBox="0 0 20 20"><path fill="#000" fill-rule="evenodd" d="M2.9165 4.16268C2.68829 4.16268 2.49984 4.3502 2.49984 4.57728V15.423C2.49984 15.6501 2.68829 15.8376 2.9165 15.8376H17.0832C17.3114 15.8376 17.4998 15.6501 17.4998 15.423V4.57728C17.4998 4.3502 17.3114 4.16268 17.0832 4.16268H2.9165ZM1.6665 4.57728C1.6665 3.89225 2.22805 3.3335 2.9165 3.3335H17.0832C17.7716 3.3335 18.3332 3.89225 18.3332 4.57728V15.423C18.3332 16.1081 17.7716 16.6668 17.0832 16.6668H2.9165C2.22805 16.6668 1.6665 16.1081 1.6665 15.423V4.57728Z" clip-rule="evenodd"/><path fill="#000" fill-rule="evenodd" d="M18.2573 5.17691C18.3897 5.36511 18.3445 5.62502 18.1563 5.75745L10.7485 10.9704C10.304 11.3485 9.6912 11.3431 9.24492 10.9718L1.84324 5.75733C1.65511 5.6248 1.61005 5.36485 1.74258 5.17673C1.87511 4.98861 2.13505 4.94354 2.32317 5.07608L9.73984 10.3011C9.75088 10.3089 9.76153 10.3172 9.77176 10.326C9.91772 10.4517 10.0835 10.4465 10.2153 10.3298C10.2269 10.3195 10.2391 10.3099 10.2517 10.3009L17.6768 5.07595C17.8649 4.94352 18.1249 4.98872 18.2573 5.17691Z" clip-rule="evenodd"/></svg>