<svg xmlns="http://www.w3.org/2000/svg" width="58" height="36" fill="none" viewBox="0 0 58 36"><g clip-path="url(#clip0_877_3845)"><rect width="15.683" height="28.303" x="21.158" y="3.849" fill="#FF5F00"/><path fill="#EB001B" d="M22.1542 18C22.1491 12.477 24.6736 7.25848 29 3.84862C21.6513 -1.95209 11.0976 -1.10782 4.75612 5.78806C-1.58537 12.6839 -1.58537 23.316 4.75612 30.2119C11.0976 37.1078 21.6513 37.952 29 32.1513C24.6736 28.7414 22.1492 23.523 22.1542 18Z"/><path fill="#F79E1B" d="M57.9986 18C57.9988 24.8912 54.081 31.1776 47.909 34.1895C41.7371 37.2014 34.3944 36.41 28.9995 32.1513C33.3218 28.7382 35.8452 23.5218 35.8452 18C35.8452 12.4781 33.3218 7.26174 28.9995 3.8486C34.3944 -0.41004 41.7371 -1.20148 47.909 1.81041C54.081 4.8223 57.9988 11.1088 57.9986 18Z"/><path fill="#F79E1B" fill-rule="evenodd" d="M57.439 28.455V29.1536H57.3108V28.6255L57.1149 29.081H56.9819L56.786 28.6266V29.1536H56.6577V28.455H56.8395L57.0484 28.9355L57.2573 28.455H57.439ZM56.2886 28.5742V29.1536H56.1615V28.5742H55.9287V28.4561H56.5213V28.5742H56.2886Z" clip-rule="evenodd"/></g><defs><clipPath id="clip0_877_3845"><rect width="58" height="36.001" fill="#fff"/></clipPath></defs></svg>