<svg width="54" height="44" viewBox="0 0 54 44" fill="none" xmlns="http://www.w3.org/2000/svg">
<path d="M3.86719 28.0889C6.55518 28.0889 8.15186 25.9868 8.15186 22.4272C8.15186 21.0869 7.89551 19.959 7.40479 19.0874C6.69434 17.7324 5.47119 17 3.92578 17C1.62598 17 0 18.5454 0 20.7134C0 22.7495 1.46484 24.229 3.479 24.229C4.7168 24.229 5.72021 23.6504 6.21826 22.647H6.24023C6.24023 22.647 6.26953 22.647 6.27686 22.647C6.2915 22.647 6.34277 22.647 6.34277 22.647C6.34277 25.064 5.42725 26.5068 3.88184 26.5068C2.97363 26.5068 2.27051 26.0088 2.02881 25.2104H0.146484C0.461426 26.9463 1.93359 28.0889 3.86719 28.0889ZM3.93311 22.7275C2.71729 22.7275 1.85303 21.8633 1.85303 20.6548C1.85303 19.4756 2.76123 18.5747 3.94043 18.5747C5.11963 18.5747 6.02783 19.4902 6.02783 20.6841C6.02783 21.8633 5.1416 22.7275 3.93311 22.7275Z" fill="white"/>
<path d="M11.243 27.9863C11.9388 27.9863 12.4148 27.4883 12.4148 26.8291C12.4148 26.1626 11.9388 25.6719 11.243 25.6719C10.5545 25.6719 10.0711 26.1626 10.0711 26.8291C10.0711 27.4883 10.5545 27.9863 11.243 27.9863ZM11.243 22.4932C11.9388 22.4932 12.4148 22.0024 12.4148 21.3433C12.4148 20.6768 11.9388 20.186 11.243 20.186C10.5545 20.186 10.0711 20.6768 10.0711 21.3433C10.0711 22.0024 10.5545 22.4932 11.243 22.4932Z" fill="white"/>
<path d="M19.2706 27.8325H21.0797V25.8623H22.5079V24.2656H21.0797V17.2637H18.4137C16.546 20.0762 15.0592 22.4272 14.107 24.1777V25.8623H19.2706V27.8325ZM15.8575 24.1997C17.088 22.0317 18.1866 20.2959 19.1974 18.8018H19.2999V24.3096H15.8575V24.1997Z" fill="white"/>
<path d="M26.5365 27.8325H28.4262V17.2637H26.5438L23.7826 19.1973V21.0137L26.412 19.168H26.5365V27.8325Z" fill="white"/>
</svg>
