<svg xmlns="http://www.w3.org/2000/svg" width="38" height="38" fill="none" viewBox="0 0 38 38"><g clip-path="url(#clip0_0_495)"><path fill="#fff" fill-rule="evenodd" d="M26.2409 7.92788C26.4459 7.6635 26.8264 7.61537 27.0907 7.82038C28.234 8.70687 29.2703 9.81962 30.1372 10.9912C30.2638 11.1622 30.2913 11.3871 30.2098 11.5837C30.117 11.8074 30.0026 11.9778 29.9187 12.1028L29.9117 12.1133C29.8241 12.2439 29.7703 12.3267 29.7264 12.4324C29.1582 13.8019 29.7972 15.3475 31.1667 15.9157C31.3404 15.9878 31.4819 16.046 31.6105 16.0862C31.7428 16.1275 31.8096 16.1322 31.8336 16.1305C32.1331 16.1094 32.4029 16.311 32.4677 16.6041C32.8065 18.1378 32.7855 19.5197 32.5561 21.0552C32.5102 21.362 32.2399 21.5846 31.93 21.5708C30.7351 21.5175 29.6307 22.1464 29.1831 23.225C28.7435 24.2844 29.0552 25.5016 30.1527 26.4108C30.4045 26.6194 30.4453 26.9901 30.245 27.2485C29.3585 28.3917 28.2457 29.4281 27.0742 30.295C26.9031 30.4216 26.6782 30.4491 26.4817 30.3675C26.258 30.2747 26.0876 30.1604 25.9626 30.0765L25.9521 30.0695C25.8215 29.9819 25.7386 29.9281 25.6329 29.8842C24.2634 29.3159 22.7179 29.955 22.1496 31.3245C22.0775 31.4981 22.0193 31.6397 21.9792 31.7682C21.9378 31.9006 21.9331 31.9674 21.9348 31.9914C21.9559 32.2909 21.7544 32.5607 21.4612 32.6254C19.9276 32.9642 18.5457 32.9433 17.0102 32.7138C16.7033 32.668 16.4807 32.3977 16.4945 32.0877C16.5478 30.8928 15.919 29.7884 14.8403 29.3409C13.729 28.8797 12.4252 29.213 11.7596 30.0714C11.5546 30.3358 11.1741 30.3839 10.9097 30.1789C9.76646 29.2924 8.73015 28.1797 7.86322 27.0081C7.73665 26.8371 7.70911 26.6122 7.79066 26.4156C7.88348 26.1919 7.99781 26.0215 8.0817 25.8965L8.08873 25.886C8.17631 25.7554 8.23016 25.6726 8.27402 25.5669C8.84228 24.1974 8.20323 22.6518 6.83373 22.0836C6.66007 22.0115 6.51852 21.9533 6.38997 21.9131C6.25765 21.8718 6.19084 21.8671 6.16683 21.8688C5.86731 21.8899 5.59753 21.6883 5.53277 21.3952C5.194 19.8615 5.21493 18.4796 5.4444 16.9441C5.49026 16.6373 5.76054 16.4147 6.07048 16.4285C7.26538 16.4818 8.36977 15.8529 8.81734 14.7743C9.26339 13.6994 8.9288 12.5014 7.93872 11.7668C7.80791 11.6698 7.72169 11.5241 7.69953 11.3627C7.67737 11.2014 7.72114 11.0379 7.82095 10.9091C8.70745 9.76589 9.8202 8.72957 10.9918 7.86264C11.1628 7.73608 11.3877 7.70853 11.5842 7.79008C11.8079 7.8829 11.9783 7.99724 12.1034 8.08113L12.1138 8.08816C12.2444 8.17574 12.3273 8.22958 12.433 8.27344C13.8025 8.84171 15.3481 8.20265 15.9163 6.83316C15.9884 6.65949 16.0466 6.51795 16.0868 6.3894C16.1281 6.25707 16.1328 6.19026 16.1311 6.16625C16.11 5.86673 16.3115 5.59696 16.6047 5.53219C18.1464 5.19164 19.6419 5.26306 21.043 5.44205C21.3556 5.482 21.5854 5.75502 21.5714 6.0699C21.5185 7.2551 22.0732 8.20742 23.1601 8.65843C24.2714 9.11957 25.5752 8.7863 26.2409 7.92788ZM26.775 9.12451C25.7014 10.0869 24.0735 10.3491 22.6958 9.77743C21.2837 9.19148 20.4873 7.99173 20.3713 6.58389C19.3411 6.47834 18.3111 6.45958 17.2767 6.63511C17.266 6.67527 17.2546 6.71383 17.2432 6.7505C17.1851 6.93666 17.1065 7.12602 17.0402 7.28562L17.0353 7.29748C16.2106 9.28498 13.9562 10.2171 11.9687 9.39244C11.745 9.29962 11.5746 9.18528 11.4496 9.10139L11.4391 9.09436C11.4268 9.08613 11.4149 9.07819 11.4034 9.07053C10.5763 9.71169 9.7993 10.4347 9.13848 11.2092C10.1882 12.2771 10.5232 13.8243 9.93634 15.2386C9.34559 16.6623 8.01089 17.5046 6.57485 17.6274C6.44729 18.7057 6.44952 19.6859 6.63377 20.7227C6.67462 20.7335 6.71383 20.745 6.75108 20.7567C6.93723 20.8148 7.12659 20.8934 7.28619 20.9596L7.29806 20.9646C9.28556 21.7893 10.2177 24.0437 9.39302 26.0312C9.3002 26.2549 9.18586 26.4253 9.10197 26.5503L9.09494 26.5608C9.0867 26.5731 9.07876 26.5849 9.0711 26.5964C9.7166 27.4291 10.4451 28.2111 11.2255 28.8748C12.2991 27.9124 13.9269 27.6502 15.3047 28.2219C16.7283 28.8126 17.5706 30.1473 17.6935 31.5834C18.7718 31.7109 19.7519 31.7087 20.7887 31.5244C20.7996 31.4836 20.8111 31.4444 20.8227 31.4071C20.8809 31.221 20.9594 31.0316 21.0257 30.872L21.0306 30.8602C21.8553 28.8727 24.1097 27.9405 26.0972 28.7652C26.3209 28.858 26.4913 28.9723 26.6163 29.0562L26.6268 29.0633C26.6391 29.0715 26.651 29.0794 26.6625 29.0871C27.4949 28.4418 28.2767 27.7136 28.9402 26.9334C27.8339 25.767 27.463 24.2093 28.0641 22.7607C28.6549 21.337 29.9896 20.4947 31.4256 20.3719C31.5532 19.2936 31.5509 18.3134 31.3667 17.2766C31.3258 17.2658 31.2866 17.2543 31.2494 17.2426C31.0632 17.1845 30.8739 17.1059 30.7143 17.0397L30.7024 17.0347C28.7149 16.21 27.7827 13.9556 28.6074 11.9681C28.7003 11.7444 28.8146 11.574 28.8985 11.449L28.9055 11.4385C28.9138 11.4262 28.9217 11.4144 28.9294 11.4029C28.2839 10.5702 27.5554 9.78822 26.775 9.12451Z" clip-rule="evenodd"/><path fill="#fff" fill-rule="evenodd" d="M20.8574 14.5239C18.3854 13.4981 15.5499 14.6705 14.5242 17.1426C13.4984 19.6146 14.6708 22.4501 17.1429 23.4759C19.6149 24.5016 22.4504 23.3292 23.4761 20.8572C24.5019 18.3851 23.3295 15.5496 20.8574 14.5239ZM13.4052 16.6782C14.6873 13.5882 18.2317 12.1227 21.3218 13.4049C24.4118 14.6871 25.8773 18.2315 24.5951 21.3215C23.3129 24.4115 19.7686 25.8771 16.6785 24.5949C13.5885 23.3127 12.123 19.7683 13.4052 16.6782Z" clip-rule="evenodd"/></g><defs><clipPath id="clip0_0_495"><rect width="29" height="29" fill="#fff" transform="translate(11.144) scale(1.00263) rotate(22.5358)"/></clipPath></defs></svg>