<svg width="25" height="25" viewBox="0 0 25 25" fill="none" xmlns="http://www.w3.org/2000/svg">
<path fill-rule="evenodd" clip-rule="evenodd" d="M12.5 1.04167C6.17174 1.04167 1.04167 6.17174 1.04167 12.5C1.04167 18.8283 6.17174 23.9583 12.5 23.9583C18.8283 23.9583 23.9583 18.8283 23.9583 12.5C23.9583 6.17174 18.8283 1.04167 12.5 1.04167ZM0 12.5C0 5.59644 5.59644 0 12.5 0C19.4036 0 25 5.59644 25 12.5C25 19.4036 19.4036 25 12.5 25C5.59644 25 0 19.4036 0 12.5Z" fill="white"/>
<line x1="12.4312" y1="18.0345" x2="12.4312" y2="6.96552" stroke="white" stroke-linecap="round"/>
<line x1="6.96533" y1="12.431" x2="18.0343" y2="12.431" stroke="white" stroke-linecap="round"/>
</svg>
