<svg xmlns="http://www.w3.org/2000/svg" width="20" height="20" fill="none" viewBox="0 0 20 20"><path fill="#000" fill-rule="evenodd" d="M9.99984 2.49984C5.8577 2.49984 2.49984 5.8577 2.49984 9.99984C2.49984 14.142 5.8577 17.4998 9.99984 17.4998C14.142 17.4998 17.4998 14.142 17.4998 9.99984C17.4998 5.8577 14.142 2.49984 9.99984 2.49984ZM1.6665 9.99984C1.6665 5.39746 5.39746 1.6665 9.99984 1.6665C14.6022 1.6665 18.3332 5.39746 18.3332 9.99984C18.3332 14.6022 14.6022 18.3332 9.99984 18.3332C5.39746 18.3332 1.6665 14.6022 1.6665 9.99984Z" clip-rule="evenodd"/><path fill="#000" d="M11.7831 12.6168C11.4331 12.9335 10.9247 13.1085 10.2497 13.1418V14.1668H9.80807V13.1585C9.37474 13.1335 8.96641 13.0502 8.59141 12.9085C8.20807 12.7668 7.90807 12.5752 7.69141 12.3585L7.94974 11.8502C8.15807 12.0502 8.42474 12.2168 8.75807 12.3585C9.09141 12.4918 9.44141 12.5752 9.80807 12.6002V10.2668C9.39974 10.1668 9.05807 10.0585 8.79141 9.94183C8.51641 9.82516 8.29141 9.6585 8.11641 9.4335C7.93307 9.2085 7.84141 8.9085 7.84141 8.55016C7.84141 8.09183 8.00807 7.7085 8.34141 7.40016C8.67474 7.09183 9.16641 6.9085 9.81641 6.8585V5.8335H10.2581V6.84183C10.5914 6.85016 10.9247 6.9085 11.2414 7.0085C11.5581 7.1085 11.8331 7.2335 12.0581 7.39183L11.8331 7.91683C11.5914 7.76683 11.3331 7.64183 11.0581 7.55016C10.7831 7.4585 10.5164 7.4085 10.2497 7.40016V9.75016C10.6831 9.8585 11.0414 9.96683 11.3247 10.0752C11.5997 10.1835 11.8331 10.3502 12.0247 10.5752C12.2164 10.8002 12.3081 11.0918 12.3081 11.4585C12.3081 11.9168 12.1331 12.3002 11.7831 12.6168ZM8.83307 9.22516C9.05807 9.3835 9.38307 9.51683 9.80807 9.6335V7.41683C9.37474 7.4585 9.04141 7.57516 8.81641 7.77516C8.59141 7.9835 8.48307 8.22516 8.48307 8.52516C8.49141 8.8335 8.59974 9.06683 8.83307 9.22516ZM11.3081 12.2418C11.5414 12.0502 11.6664 11.8002 11.6664 11.5002C11.6664 11.1835 11.5414 10.9418 11.2997 10.7835C11.0581 10.6252 10.7081 10.4918 10.2497 10.3752V12.5918C10.7164 12.5502 11.0664 12.4335 11.3081 12.2418Z"/></svg>