<svg width="40" height="38" viewBox="0 0 40 38" fill="none" xmlns="http://www.w3.org/2000/svg">
<path d="M19.1426 20.1384C19.1426 19.9827 19.0165 19.8566 18.8607 19.8566C18.705 19.8566 18.5789 19.9827 18.5789 20.1384C18.5789 20.8254 19.0693 21.4001 19.7183 21.5308V21.9805C19.7183 22.1353 19.8443 22.2623 20.0001 22.2623C20.1558 22.2623 20.2819 22.1353 20.2819 21.9805V21.5308C20.9318 21.4001 21.4222 20.8254 21.4222 20.1384C21.4222 19.4524 20.9318 18.8776 20.2819 18.7469V17.0532C20.6166 17.17 20.8576 17.488 20.8576 17.8616C20.8576 18.0173 20.9846 18.1434 21.1403 18.1434C21.2961 18.1434 21.4222 18.0173 21.4222 17.8616C21.4222 17.1746 20.9318 16.6008 20.2819 16.4692V16.0205C20.2819 15.8647 20.1558 15.7386 20.0001 15.7386C19.8443 15.7386 19.7183 15.8647 19.7183 16.0205V16.4692C19.0693 16.6008 18.5789 17.1746 18.5789 17.8616C18.5789 18.5485 19.0693 19.1224 19.7183 19.254V20.9468C19.3836 20.83 19.1426 20.512 19.1426 20.1384ZM20.8576 20.1384C20.8576 20.512 20.6166 20.83 20.2819 20.9468V19.33C20.6166 19.4478 20.8576 19.7648 20.8576 20.1384ZM19.1426 17.8616C19.1426 17.488 19.3836 17.17 19.7183 17.0532V18.67C19.3836 18.5532 19.1426 18.2352 19.1426 17.8616ZM20.0001 23.5203C22.4948 23.5203 24.5241 21.4928 24.5241 19C24.5241 16.5081 22.4948 14.4806 20.0001 14.4806C17.5054 14.4806 15.4761 16.5081 15.4761 19C15.4761 21.4919 17.5054 23.5203 20.0001 23.5203ZM20.0001 15.0443C22.1842 15.0443 23.9604 16.8187 23.9604 19C23.9604 21.1814 22.1842 22.9567 20.0001 22.9567C17.8169 22.9567 16.0406 21.1814 16.0406 19C16.0406 16.8187 17.8169 15.0443 20.0001 15.0443ZM7.27816 11.9637C7.12242 11.9637 6.99634 12.0898 6.99634 12.2455V25.7554C6.99634 25.9112 7.12242 26.0372 7.27816 26.0372H32.722C32.8777 26.0372 33.0038 25.9112 33.0038 25.7554V12.2455C33.0038 12.0898 32.8777 11.9637 32.722 11.9637H7.27816ZM32.4402 25.4736H7.56091V12.5273H32.4402V25.4736ZM8.50929 23.499C9.04976 23.499 9.48918 23.9894 9.48918 24.591C9.48918 24.7468 9.61526 24.8729 9.771 24.8729H30.2292C30.3849 24.8729 30.5119 24.7468 30.5119 24.591C30.5119 23.9894 30.9513 23.499 31.4909 23.499C31.6466 23.499 31.7736 23.3729 31.7736 23.2172V14.7828C31.7736 14.6271 31.6466 14.501 31.4909 14.501C30.9513 14.501 30.5119 14.0115 30.5119 13.409C30.5119 13.2532 30.3849 13.1271 30.2292 13.1271H9.771C9.61526 13.1271 9.48918 13.2532 9.48918 13.409C9.48918 14.0115 9.04976 14.501 8.50929 14.501C8.35354 14.501 8.22746 14.6271 8.22746 14.7828V23.2172C8.22746 23.3729 8.35354 23.499 8.50929 23.499ZM8.79111 15.0369C9.42336 14.9117 9.92118 14.3712 10.0306 13.6908H29.9696C30.079 14.3712 30.5768 14.9117 31.209 15.0369V22.9631C30.5768 23.0892 30.079 23.6288 29.9696 24.3092H10.0306C9.92118 23.6288 9.42336 23.0892 8.79111 22.9631V15.0369ZM12.8025 4.53801C12.7162 4.48795 12.6087 4.48702 12.5216 4.53709L2.37128 10.3247C2.26004 10.3877 2.20534 10.5175 2.23872 10.6408C2.27116 10.765 2.38334 10.8503 2.51127 10.8503H34.9451C35.1008 10.8503 35.2278 10.7242 35.2278 10.5685V7.80494C35.2278 7.64919 35.1008 7.52312 34.9451 7.52312H12.9434V4.78183C12.9434 4.68171 12.8896 4.589 12.8025 4.53801ZM34.6632 8.08676V10.2867H3.5746L12.3788 5.2676V7.80494C12.3788 7.95976 12.5058 8.08676 12.6615 8.08676H34.6632ZM27.1977 33.462C27.2413 33.487 27.2904 33.5 27.3395 33.5C27.3877 33.5 27.4359 33.4879 27.4795 33.4629L37.6298 27.6763C37.741 27.6132 37.7948 27.4825 37.7624 27.3592C37.7299 27.2359 37.6177 27.1497 37.4898 27.1497H5.05509C4.89935 27.1497 4.77327 27.2758 4.77327 27.4315V30.196C4.77327 30.3517 4.89935 30.4778 5.05509 30.4778H27.0568V33.2182C27.0577 33.3183 27.1106 33.4119 27.1977 33.462ZM5.33692 29.9142V27.7134H36.4265L27.6214 32.7333V30.196C27.6214 30.0402 27.4953 29.9142 27.3395 29.9142H5.33692Z" fill="white"/>
</svg>
