<svg width="27" height="39" viewBox="0 0 27 39" fill="none" xmlns="http://www.w3.org/2000/svg">
<circle cx="13.4997" cy="35.8884" r="2.43312" fill="#DFE0EA"/>
<path d="M26.4595 10.6875L26.4572 10.6852C26.1234 10.3522 25.6634 10.1446 25.1585 10.1446H17.9488L17.7245 8.86417C17.723 8.85733 17.7238 8.8482 17.7268 8.8406C17.7306 8.82996 17.7367 8.82083 17.7443 8.81323L20.4588 6.21967C20.6352 6.05163 20.7348 5.8433 20.7659 5.62812C20.788 5.47377 20.7728 5.31637 20.7256 5.16811C20.6793 5.02288 20.6002 4.8883 20.4953 4.77652V4.775C20.3485 4.62141 20.1485 4.50964 19.9067 4.47467L16.1605 3.9409C16.1392 3.93786 16.1194 3.93025 16.1035 3.91809C16.0913 3.90972 16.0814 3.89908 16.0761 3.88919L14.398 0.559618C14.2931 0.351282 14.1342 0.200733 13.9517 0.10873C13.808 0.0364968 13.6521 0 13.4985 0C13.3449 0 13.1883 0.0364968 13.0453 0.10797C12.8629 0.199972 12.7032 0.350522 12.599 0.558858L10.9224 3.88919C10.9171 3.89908 10.908 3.90972 10.8958 3.91733C10.8799 3.92949 10.8593 3.9371 10.8388 3.94166L7.09255 4.47467C6.85152 4.50888 6.65155 4.62065 6.50556 4.775C6.39911 4.88754 6.3208 5.02288 6.27366 5.16735C6.22575 5.31561 6.21131 5.47377 6.23412 5.62812C6.26453 5.84102 6.36262 6.04859 6.53902 6.21739L9.25271 8.81095C9.26183 8.81931 9.26868 8.82996 9.27172 8.84136C9.274 8.84896 9.27552 8.85733 9.274 8.86417L9.05046 10.1446C7.51911 10.1446 1.84157 10.1446 1.84157 10.1446C1.33518 10.1446 0.874403 10.3491 0.54061 10.6829C0.209096 11.0129 0.00380167 11.4714 0.00228087 11.9847L0 11.9869V27.3551C0 27.8608 0.206815 28.3208 0.54061 28.6546L0.54289 28.6569C0.875924 28.9899 1.33594 29.1975 1.84157 29.1975V29.1952H8.1943V29.1975H25.1585C25.6634 29.1975 26.1234 28.9899 26.4572 28.6569H26.4595C26.7925 28.3231 27.0001 27.8623 27.0001 27.3559V11.9869C27.0001 11.4821 26.7925 11.0213 26.4595 10.6875ZM7.14882 5.52471C7.13741 5.5133 7.13057 5.5019 7.12905 5.49202C7.12753 5.48365 7.12829 5.47453 7.13057 5.46692C7.13361 5.4578 7.13893 5.44715 7.1473 5.43955H7.14882C7.16327 5.42434 7.18532 5.41218 7.21193 5.40914L10.9681 4.87537C11.127 4.85104 11.2768 4.78945 11.4053 4.69745C11.5368 4.60393 11.6463 4.47847 11.7223 4.32868L13.3981 0.994539C13.4057 0.977811 13.421 0.964885 13.4377 0.957282C13.4536 0.948918 13.4749 0.944356 13.497 0.944356C13.5206 0.944356 13.5418 0.948918 13.5578 0.957282C13.5745 0.964885 13.589 0.977811 13.5974 0.994539L15.2747 4.3264V4.32792C15.3507 4.47771 15.4602 4.60316 15.5918 4.69745C15.7203 4.78869 15.8708 4.84952 16.0312 4.87461L19.7843 5.40838C19.8125 5.41142 19.8338 5.42358 19.8497 5.43879C19.8581 5.44715 19.8642 5.4578 19.8672 5.46692C19.8687 5.47377 19.8695 5.48289 19.868 5.49202C19.8672 5.50114 19.8604 5.51102 19.8482 5.52319L17.1337 8.11675C17.0106 8.23536 16.9201 8.37907 16.8691 8.53494V8.53646C16.8167 8.69385 16.8045 8.86417 16.8342 9.03449L17.1033 10.5681C17.1018 10.5833 17.1011 10.5993 17.1011 10.6153C17.1011 10.6875 17.1178 10.7567 17.1467 10.8175L17.4751 12.6941C17.4767 12.7047 17.4751 12.7146 17.4713 12.7222V12.7245C17.4668 12.7344 17.4561 12.7458 17.4447 12.7541C17.4303 12.7648 17.4113 12.7731 17.3915 12.7762C17.3657 12.7807 17.3375 12.7769 17.3101 12.7633L13.9555 11.0342C13.8087 10.9589 13.6513 10.9217 13.4977 10.9217C13.3426 10.9217 13.1852 10.9597 13.04 11.0342L9.68459 12.7633C9.65798 12.7769 9.62984 12.7807 9.60551 12.7762C9.58498 12.7724 9.56673 12.7648 9.55229 12.7541C9.54088 12.7465 9.531 12.7351 9.52416 12.723C9.52111 12.7146 9.51959 12.7039 9.52111 12.6918L9.84806 10.8213C9.87924 10.759 9.89673 10.689 9.89673 10.6153C9.89673 10.5978 9.89597 10.581 9.89369 10.5643L10.1613 9.03449C10.1917 8.86417 10.1781 8.69461 10.1271 8.53722V8.5357C10.0754 8.37983 9.98645 8.23612 9.86403 8.11827L7.14882 5.52471ZM26.0587 27.3551C26.0587 27.6015 25.9569 27.8273 25.7941 27.9916C25.6307 28.1543 25.4056 28.2562 25.1585 28.2562H8.1943V28.2577H1.84157V28.2562C1.5937 28.2562 1.36787 28.1543 1.20516 27.9923C1.04244 27.8288 0.942075 27.603 0.942075 27.3559V11.9869H0.939794C0.941314 11.7345 1.04168 11.5094 1.20211 11.3482C1.36483 11.1855 1.59141 11.0859 1.84157 11.0859H8.88546L8.63378 12.5268C8.59273 12.761 8.63378 12.9807 8.72959 13.167V13.1693C8.80258 13.3115 8.90903 13.4331 9.03677 13.5259C9.16071 13.6164 9.30593 13.6795 9.458 13.7061C9.66026 13.7411 9.87924 13.7145 10.0861 13.608L13.4407 11.8797C13.4575 11.8706 13.4772 11.8676 13.4993 11.8676C13.5221 11.8676 13.5426 11.8714 13.5586 11.8797L16.9117 13.608C17.1201 13.7152 17.339 13.7418 17.5413 13.7061C17.6941 13.6787 17.8386 13.6164 17.9633 13.5251C18.0895 13.4331 18.196 13.3115 18.2697 13.1685C18.3663 12.9815 18.4066 12.7602 18.3655 12.5253L18.1138 11.0867H25.1585C25.4064 11.0867 25.6307 11.1886 25.7941 11.3505C25.9569 11.514 26.058 11.7398 26.058 11.9869V27.3551H26.0587ZM23.5838 22.8174C23.5838 23.0767 23.3724 23.288 23.1131 23.288H3.88615C3.62611 23.288 3.4155 23.0767 3.4155 22.8174C3.4155 22.5573 3.62611 22.346 3.88615 22.346H23.1131C23.3724 22.346 23.5838 22.5573 23.5838 22.8174ZM23.5838 25.014C23.5838 25.2741 23.3724 25.4847 23.1131 25.4847H3.88615C3.62611 25.4847 3.4155 25.2741 3.4155 25.014C3.4155 24.754 3.62611 24.5434 3.88615 24.5434H23.1131C23.3724 24.5434 23.5838 24.754 23.5838 25.014ZM3.41626 18.0127V19.8817C3.41626 20.1204 3.51434 20.3386 3.67173 20.4968L3.67402 20.4991C3.83217 20.6565 4.04963 20.7553 4.28838 20.7553H9.86479C10.1051 20.7553 10.324 20.6565 10.4807 20.4991C10.6388 20.3409 10.7369 20.1219 10.7369 19.8817V16.143C10.7369 15.905 10.6396 15.6868 10.4799 15.5279L10.4784 15.5256C10.3195 15.369 10.102 15.2709 9.86403 15.2709H4.28762C4.04811 15.2709 3.82989 15.369 3.67097 15.5271C3.51358 15.6845 3.4155 15.9035 3.4155 16.143V18.0127H3.41626ZM4.35681 18.4826C4.71037 18.4826 5.19016 18.4826 5.54372 18.4826V19.8117H4.35681V18.4826ZM7.66662 19.8125H6.48503V18.0188C6.48503 18.0165 6.48503 18.0142 6.48503 18.0127C6.48503 18.0112 6.48503 18.0082 6.48503 18.0066V16.2122H7.66662V19.8125ZM8.60793 19.8125V18.4826H9.79484V19.8125H8.60793ZM9.79484 17.5413C9.44204 17.5413 8.9615 17.5413 8.60793 17.5413V16.2122H9.79484V17.5413ZM5.54372 16.2122V17.5413H4.35681V16.2122H5.54372ZM23.5838 15.7415C23.5838 16.0016 23.3724 16.213 23.1131 16.213H18.6856C18.4256 16.213 18.215 16.0016 18.215 15.7415C18.215 15.4823 18.4256 15.2709 18.6856 15.2709H23.1131C23.3724 15.2709 23.5838 15.4823 23.5838 15.7415ZM23.5838 17.939C23.5838 18.199 23.3724 18.4096 23.1131 18.4096H18.6856C18.4256 18.4096 18.215 18.199 18.215 17.939C18.215 17.6789 18.4256 17.4683 18.6856 17.4683H23.1131C23.3724 17.4683 23.5838 17.6789 23.5838 17.939ZM18.0066 2.56542C17.8143 2.3913 17.8006 2.09325 17.9747 1.9024L18.9525 0.828022C19.1274 0.635653 19.4247 0.621967 19.6155 0.796088C19.8079 0.970968 19.8216 1.26827 19.6475 1.45987L18.6697 2.53425C18.4955 2.72662 18.1982 2.7403 18.0066 2.56542ZM21.0328 7.8529L22.1232 8.26806C22.365 8.36006 22.4866 8.63226 22.3954 8.87482C22.3034 9.11661 22.0312 9.23902 21.7886 9.14702L20.699 8.73187C20.4565 8.63987 20.3348 8.3669 20.4268 8.12511C20.5181 7.8818 20.7903 7.76014 21.0328 7.8529ZM7.35183 1.45987C7.17695 1.26827 7.1914 0.970968 7.38301 0.796088C7.57462 0.621967 7.87191 0.635653 8.04603 0.828022L9.02384 1.9024C9.19796 2.09401 9.18428 2.3913 8.99267 2.56542C8.8003 2.7403 8.50377 2.72662 8.32964 2.53425L7.35183 1.45987ZM4.60468 8.87482C4.51268 8.63226 4.63358 8.36006 4.87689 8.26806L5.96647 7.8529C6.20903 7.7609 6.48123 7.8818 6.57323 8.12511C6.66524 8.3669 6.54358 8.63987 6.30103 8.73187L5.21068 9.14702C4.96889 9.23902 4.69745 9.11661 4.60468 8.87482Z" fill="url(#paint0_linear_0_77)"/>
<path d="M13.0482 0.91468C13.2329 0.540526 13.7664 0.540526 13.9511 0.91468L15.6339 4.32436C15.7072 4.47294 15.8489 4.57592 16.0129 4.59974L19.7757 5.14651C20.1886 5.20651 20.3535 5.71393 20.0547 6.00517L17.3319 8.65923C17.2133 8.77488 17.1591 8.94151 17.1871 9.10481L17.8299 12.8524C17.9004 13.2636 17.4688 13.5772 17.0995 13.3831L13.7339 11.6137C13.5873 11.5366 13.4121 11.5366 13.2654 11.6137L9.89986 13.3831C9.53055 13.5772 9.09891 13.2636 9.16945 12.8524L9.81221 9.10481C9.84022 8.94151 9.78608 8.77488 9.66743 8.65923L6.94464 6.00517C6.64586 5.71393 6.81073 5.20651 7.22363 5.14651L10.9864 4.59974C11.1504 4.57592 11.2921 4.47294 11.3655 4.32436L13.0482 0.91468Z" fill="url(#paint1_linear_0_77)"/>
<defs>
<linearGradient id="paint0_linear_0_77" x1="27.0001" y1="1.9638" x2="-5.5457" y2="13.3604" gradientUnits="userSpaceOnUse">
<stop stop-color="#77AAFF"/>
<stop offset="1" stop-color="#3366FF"/>
</linearGradient>
<linearGradient id="paint1_linear_0_77" x1="21.16" y1="1.03046" x2="3.02797" y2="7.89657" gradientUnits="userSpaceOnUse">
<stop stop-color="#77AAFF"/>
<stop offset="1" stop-color="#3366FF"/>
</linearGradient>
</defs>
</svg>
