<svg xmlns="http://www.w3.org/2000/svg" width="25" height="25" fill="none" viewBox="0 0 25 25"><path fill="#fff" fill-rule="evenodd" d="M21.1939 3.80074C20.2931 2.89997 18.8417 2.89997 17.9409 3.80074L4.56988 17.1821L3.34678 21.6583L7.82276 20.4352L21.1938 7.05389C22.0945 6.15313 22.0947 4.70151 21.1939 3.80074ZM17.2043 3.06417C18.5119 1.7566 20.6229 1.7566 21.9305 3.06417C23.238 4.37173 23.238 6.48276 21.9305 7.79032L8.46186 21.2693C8.39781 21.3334 8.31814 21.3797 8.23072 21.4036L2.74114 22.9036C2.56075 22.9529 2.36779 22.9017 2.23557 22.7695C2.10334 22.6373 2.05215 22.4443 2.10144 22.2639L3.60144 16.7743C3.62529 16.6871 3.67147 16.6075 3.73543 16.5435L17.2043 3.06417Z" clip-rule="evenodd"/></svg>