<svg width="20" height="20" viewBox="0 0 20 20" fill="none" xmlns="http://www.w3.org/2000/svg">
<path fill-rule="evenodd" clip-rule="evenodd" d="M10.0002 2.49984C6.7991 2.49984 4.16683 5.23567 4.16683 8.6415C4.16683 10.6139 5.16656 12.5046 6.39317 14.0757C7.61336 15.6386 9.01894 16.8352 9.74886 17.4136C9.89789 17.5286 10.1024 17.5286 10.2515 17.4136C10.9811 16.8354 12.3868 15.6367 13.6071 14.0727C14.8339 12.5004 15.8335 10.6096 15.8335 8.6415C15.8335 5.23567 13.2012 2.49984 10.0002 2.49984ZM3.3335 8.6415C3.3335 4.814 6.30122 1.6665 10.0002 1.6665C13.6991 1.6665 16.6668 4.814 16.6668 8.6415C16.6668 10.8817 15.5373 12.9535 14.2641 14.5853C12.9853 16.2243 11.5214 17.4707 10.7672 18.0681L10.7643 18.0704L10.7643 18.0704C10.3138 18.4208 9.68648 18.4208 9.23602 18.0704L9.23311 18.0681C8.47921 17.4709 7.01519 16.2266 5.73632 14.5885C4.46293 12.9575 3.3335 10.8858 3.3335 8.6415Z" fill="black"/>
<path fill-rule="evenodd" clip-rule="evenodd" d="M9.99984 5.83333C8.61913 5.83333 7.49984 6.95262 7.49984 8.33333C7.49984 9.71405 8.61913 10.8333 9.99984 10.8333C11.3805 10.8333 12.4998 9.71405 12.4998 8.33333C12.4998 6.95262 11.3805 5.83333 9.99984 5.83333ZM6.6665 8.33333C6.6665 6.49238 8.15889 5 9.99984 5C11.8408 5 13.3332 6.49238 13.3332 8.33333C13.3332 10.1743 11.8408 11.6667 9.99984 11.6667C8.15889 11.6667 6.6665 10.1743 6.6665 8.33333Z" fill="#171616"/>
</svg>
