<svg width="40" height="38" viewBox="0 0 40 38" fill="none" xmlns="http://www.w3.org/2000/svg">
<path d="M7.36742 33V17.7508L7.3675 17.7496C7.36828 17.7357 7.36906 17.7174 7.36948 17.6954C7.37032 17.6516 7.36977 17.5919 7.36472 17.5214C7.35482 17.3834 7.32663 17.1884 7.24743 16.9852C7.16748 16.7801 7.02928 16.5515 6.79237 16.3752C6.55125 16.1959 6.24569 16.099 5.88285 16.099H5.87649H5.87011H5.86371H5.85731H5.85089H5.84445H5.83801H5.83155H5.82508H5.8186H5.81211H5.8056H5.79908H5.79255H5.78601H5.77946H5.77289H5.76631H5.75973H5.75313H5.74652H5.73989H5.73326H5.72662H5.71996H5.7133H5.70662H5.69993H5.69324H5.68653H5.67981H5.67308H5.66635H5.6596H5.65284H5.64607H5.6393H5.63251H5.62571H5.61891H5.6121H5.60527H5.59844H5.5916H5.58475H5.57789H5.57102H5.56415H5.55726H5.55037H5.54347H5.53656H5.52964H5.52272H5.51578H5.50884H5.50189H5.49494H5.48798H5.481H5.47403H5.46704H5.46005H5.45305H5.44605H5.43903H5.43202H5.42499H5.41796H5.41092H5.40388H5.39683H5.38977H5.38271H5.37564H5.36856H5.36148H5.3544H5.34731H5.34021H5.33311H5.32601H5.3189H5.31178H5.30466H5.29753H5.2904H5.28327H5.27613H5.26899H5.26184H5.25469H5.24753H5.24037H5.23321H5.22604H5.21887H5.2117H5.20452H5.19734H5.19015H5.18297H5.17578H5.16858H5.16139H5.15419H5.14699H5.13978H5.13258H5.12537H5.11816H5.11095H5.10373H5.09651H5.0893H5.08208H5.07485H5.06763H5.06041H5.05318H5.04595H5.03872H5.03149H5.02426H5.01703H5.0098H5.00257H4.99534H4.9881H4.98087H4.97364H4.9664H4.95917H4.95193H4.9447H4.93747H4.93023H4.923H4.91577H4.90854H4.90131H4.89408H4.88685H4.87962H4.8724H4.86517H4.85795H4.85073H4.84351H4.83629H4.82907H4.82186H4.81464H4.80743H4.80023H4.79302H4.78582H4.77861H4.77142H4.76422H4.75703H4.74984H4.74265H4.73546H4.72828H4.72111H4.71393H4.70676H4.69959H4.69243H4.68527H4.67811H4.67096H4.66382H4.65667H4.64953H4.6424H4.63527H4.62872L18.8208 5.40971C18.8209 5.40964 18.821 5.40957 18.8211 5.40949C19.5486 4.86356 20.4514 4.8635 21.1789 5.40932C21.1791 5.40945 21.1793 5.40958 21.1794 5.40971L35.3716 16.099H35.3646H35.3575H35.3503H35.3432H35.3361H35.3289H35.3218H35.3146H35.3075H35.3003H35.2931H35.286H35.2788H35.2716H35.2644H35.2572H35.25H35.2429H35.2357H35.2285H35.2213H35.2141H35.2069H35.1997H35.1925H35.1852H35.178H35.1708H35.1636H35.1564H35.1492H35.1419H35.1347H35.1275H35.1203H35.113H35.1058H35.0986H35.0914H35.0841H35.0769H35.0697H35.0624H35.0552H35.048H35.0407H35.0335H35.0263H35.019H35.0118H35.0046H34.9973H34.9901H34.9829H34.9756H34.9684H34.9612H34.954H34.9467H34.9395H34.9323H34.9251H34.9178H34.9106H34.9034H34.8962H34.889H34.8818H34.8746H34.8673H34.8601H34.8529H34.8457H34.8385H34.8314H34.8242H34.817H34.8098H34.8026H34.7954H34.7882H34.7811H34.7739H34.7667H34.7596H34.7524H34.7453H34.7381H34.731H34.7238H34.7167H34.7096H34.7024H34.6953H34.6882H34.6811H34.674H34.6669H34.6598H34.6527H34.6456H34.6385H34.6314H34.6244H34.6173H34.6102H34.6032H34.5961H34.5891H34.5821H34.575H34.568H34.561H34.554H34.547H34.54H34.533H34.526H34.519H34.5121H34.5051H34.4981H34.4912H34.4843H34.4773H34.4704H34.4635H34.4566H34.4497H34.4428H34.4359H34.4291H34.4222H34.4153H34.4085H34.4016H34.3948H34.388H34.3812H34.3744H34.3676H34.3608H34.354H34.3473H34.3405H34.3338H34.327H34.3203H34.3136H34.3069H34.3002H34.2935H34.2869H34.2802H34.2735H34.2669H34.2603H34.2537H34.2471H34.2405H34.2339H34.2273H34.2207H34.2142H34.2077H34.2011H34.1946H34.1881H34.1816H34.1751H34.1687H34.1622H34.1558H34.1494H34.1429H34.1365H34.1302H34.1238H34.1174C33.7543 16.099 33.4486 16.1958 33.2073 16.3752C32.9701 16.5515 32.8319 16.7802 32.7521 16.9855C32.673 17.1888 32.645 17.3839 32.6353 17.522C32.6303 17.5926 32.6298 17.6523 32.6307 17.6961C32.6312 17.7181 32.632 17.7364 32.6328 17.7503L32.6329 17.7512V33H24.7366V25.7139C24.7366 24.1728 24.1507 22.9806 23.2445 22.179C22.3477 21.3857 21.1664 21.0001 20.0019 21.0001C18.8373 21.0001 17.6561 21.3857 16.7593 22.179C15.853 22.9806 15.2672 24.1728 15.2672 25.7139V33H7.36742Z" stroke="white"/>
</svg>
