<svg width="25" height="56" viewBox="0 0 25 56" fill="none" xmlns="http://www.w3.org/2000/svg">
<path d="M24.3872 20.5C24.3872 9.45431 15.4329 0.5 4.38721 0.5H-0.00021553V25.5H24.3872V20.5Z" fill="#3366FF"/>
<path d="M24.8872 20.5C24.8872 9.17816 15.709 0 4.38721 0H-0.00021553V1H4.38721C15.1568 1 23.8872 9.73045 23.8872 20.5H24.8872ZM-0.00021553 25.5H24.3872H-0.00021553ZM24.8872 25.5V20.5C24.8872 9.17816 15.709 0 4.38721 0V1C15.1568 1 23.8872 9.73045 23.8872 20.5V25.5H24.8872ZM-0.00021553 0.5V25.5V0.5Z" fill="#3366FF"/>
<path d="M24.3872 25.5H-0.00021553V30.5H24.3872V25.5Z" fill="#3366FF"/>
<path d="M23.8872 30.5V25.5H24.8872V30.5H23.8872Z" fill="#3366FF"/>
<path d="M24.3872 35.5C24.3872 46.5457 15.4329 55.5 4.38721 55.5H-0.00021553V30.5H24.3872V35.5Z" fill="#3366FF"/>
<path d="M24.8872 35.5C24.8872 46.8218 15.709 56 4.38721 56H-0.00021553V55H4.38721C15.1568 55 23.8872 46.2696 23.8872 35.5H24.8872ZM-0.00021553 30.5H24.3872H-0.00021553ZM24.8872 30.5V35.5C24.8872 46.8218 15.709 56 4.38721 56V55C15.1568 55 23.8872 46.2696 23.8872 35.5V30.5H24.8872ZM-0.00021553 55.5V30.5V55.5Z" fill="#3366FF"/>
</svg>
