<svg width="25" height="25" viewBox="0 0 25 25" fill="none" xmlns="http://www.w3.org/2000/svg">
<path fill-rule="evenodd" clip-rule="evenodd" d="M6.771 11.4583C6.48573 11.4583 6.25016 11.6939 6.25016 11.9792V21.3542C6.25016 21.6394 6.48573 21.875 6.771 21.875H18.2293C18.5146 21.875 18.7502 21.6394 18.7502 21.3542V11.9792C18.7502 11.6939 18.5146 11.4583 18.2293 11.4583H6.771ZM5.2085 11.9792C5.2085 11.1186 5.91043 10.4167 6.771 10.4167H18.2293C19.0899 10.4167 19.7918 11.1186 19.7918 11.9792V21.3542C19.7918 22.2147 19.0899 22.9167 18.2293 22.9167H6.771C5.91043 22.9167 5.2085 22.2147 5.2085 21.3542V11.9792Z" fill="white"/>
<path fill-rule="evenodd" clip-rule="evenodd" d="M12.4998 3.12501C10.1791 3.12501 8.33317 4.91621 8.33317 7.06251V10.9375C8.33317 11.2252 8.09999 11.4583 7.81234 11.4583C7.52469 11.4583 7.2915 11.2252 7.2915 10.9375V7.06251C7.2915 4.29214 9.65386 2.08334 12.4998 2.08334C15.3346 2.08334 17.7082 4.29141 17.7082 7.06251V10.9375C17.7082 11.2252 17.475 11.4583 17.1873 11.4583C16.8997 11.4583 16.6665 11.2252 16.6665 10.9375V7.06251C16.6665 4.91695 14.8109 3.12501 12.4998 3.12501Z" fill="white" stroke="white" stroke-linecap="round" stroke-linejoin="round"/>
</svg>
