<svg width="36" height="56" viewBox="0 0 36 56" fill="none" xmlns="http://www.w3.org/2000/svg">
<path d="M24.8875 20.5C24.8875 9.45431 15.9331 0.5 4.88745 0.5H0.500029V25.5H24.8875V20.5Z" fill="#E9E9EB" stroke="#E9E9EB"/>
<rect width="24.3874" height="5" transform="matrix(-1 0 0 1 24.8875 25.5)" fill="#E9E9EB" stroke="#E9E9EB"/>
<path fill-rule="evenodd" clip-rule="evenodd" d="M23.8305 41.9326C24.5158 39.9139 24.8874 37.7503 24.8874 35.5V30.5H0.5V55.5H4.88743C9.23053 55.5 13.2503 54.1157 16.5295 51.7641C20.7634 53.6642 27.3092 55.3737 35.1558 54.3633C32.9096 53.6815 24.2456 49.5906 24.5665 41.4087C24.3639 41.606 24.1159 41.7799 23.8305 41.9326Z" fill="#E9E9EB"/>
<path d="M23.8305 41.9326L24.0663 42.3735L22.9501 42.9706L23.357 41.7718L23.8305 41.9326ZM24.8874 30.5V30H25.3874V30.5H24.8874ZM0.5 30.5H0V30H0.5V30.5ZM0.5 55.5V56H0V55.5H0.5ZM16.5295 51.7641L16.2382 51.3578L16.4719 51.1902L16.7343 51.308L16.5295 51.7641ZM35.1558 54.3633L35.301 53.8848L35.2196 54.8592L35.1558 54.3633ZM24.5665 41.4087L24.2176 41.0505L25.1152 40.1764L25.0661 41.4283L24.5665 41.4087ZM25.3874 35.5C25.3874 37.8057 25.0066 40.0235 24.3039 42.0933L23.357 41.7718C24.025 39.8042 24.3874 37.695 24.3874 35.5H25.3874ZM25.3874 30.5V35.5H24.3874V30.5H25.3874ZM0.5 30H24.8874V31H0.5V30ZM0 55.5V30.5H1V55.5H0ZM4.88743 56H0.5V55H4.88743V56ZM16.8209 52.1705C13.4595 54.5809 9.33847 56 4.88743 56V55C9.12258 55 13.041 53.6504 16.2382 51.3578L16.8209 52.1705ZM35.2196 54.8592C27.2666 55.8833 20.6279 54.1514 16.3248 52.2203L16.7343 51.308C20.8988 53.1769 27.3517 54.8641 35.0919 53.8674L35.2196 54.8592ZM25.0661 41.4283C24.9135 45.3182 26.8906 48.2531 29.2299 50.3241C31.5758 52.401 34.2373 53.562 35.301 53.8848L35.0105 54.8417C33.828 54.4828 31.0345 53.2574 28.567 51.0729C26.093 48.8826 23.8985 45.6811 24.0669 41.3891L25.0661 41.4283ZM23.5946 41.4917C23.848 41.3561 24.0555 41.2085 24.2176 41.0505L24.9153 41.7669C24.6723 42.0036 24.3838 42.2036 24.0663 42.3735L23.5946 41.4917Z" fill="#E9E9EB"/>
</svg>
