<svg width="40" height="38" viewBox="0 0 40 38" fill="none" xmlns="http://www.w3.org/2000/svg">
<mask id="path-1-inside-1_0_266" fill="white">
<path d="M20.8335 16.6811V18.2273C21.2664 18.1031 21.4518 17.8564 21.4518 17.4848C21.4518 17.2994 21.3898 17.176 21.3285 17.0519C21.2664 16.8665 21.081 16.7431 20.8335 16.6811Z"/>
</mask>
<path d="M20.8335 16.6811L21.0767 15.7111L19.8335 15.3993V16.6811H20.8335ZM20.8335 18.2273H19.8335V19.5543L21.1091 19.1885L20.8335 18.2273ZM21.3285 17.0519L20.3802 17.3693L20.4017 17.4338L20.4319 17.4947L21.3285 17.0519ZM19.8335 16.6811V18.2273H21.8335V16.6811H19.8335ZM21.1091 19.1885C21.4517 19.0903 21.8119 18.9107 22.0811 18.5795C22.3589 18.2376 22.4518 17.8429 22.4518 17.4848H20.4518C20.4518 17.4952 20.4505 17.4775 20.4615 17.442C20.4735 17.4038 20.4955 17.3594 20.5289 17.3182C20.5971 17.2343 20.6481 17.2401 20.5579 17.266L21.1091 19.1885ZM22.4518 17.4848C22.4518 17.0445 22.2874 16.7352 22.2251 16.6091L20.4319 17.4947C20.436 17.5031 20.4393 17.5098 20.4427 17.5167C20.446 17.5234 20.4488 17.5292 20.4514 17.5345C20.4566 17.5452 20.46 17.5526 20.4625 17.558C20.4673 17.5687 20.4668 17.5685 20.4644 17.5616C20.4619 17.5538 20.4582 17.5411 20.4555 17.5251C20.4542 17.5174 20.4532 17.5099 20.4526 17.5028C20.452 17.4957 20.4518 17.4896 20.4518 17.4848H22.4518ZM22.2768 16.7345C22.0555 16.0735 21.4619 15.8077 21.0767 15.7111L20.5903 17.651C20.6259 17.66 20.6075 17.6618 20.5628 17.6293C20.5118 17.5922 20.4269 17.5089 20.3802 17.3693L22.2768 16.7345Z" fill="white" mask="url(#path-1-inside-1_0_266)"/>
<mask id="path-3-inside-2_0_266" fill="white">
<path d="M18.9785 13.5895C18.9785 13.899 19.1639 14.1457 19.5348 14.3312V12.9091C19.1639 13.0332 18.9785 13.2186 18.9785 13.5895Z"/>
</mask>
<path d="M19.5348 14.3312L19.0876 15.2256L20.5348 15.9492V14.3312H19.5348ZM19.5348 12.9091H20.5348V11.5199L19.2174 11.9608L19.5348 12.9091ZM17.9785 13.5895C17.9785 14.4086 18.5134 14.9385 19.0876 15.2256L19.982 13.4367C19.8898 13.3906 19.8906 13.3709 19.9174 13.4067C19.9322 13.4263 19.9494 13.4558 19.962 13.4937C19.9746 13.5316 19.9785 13.5654 19.9785 13.5895H17.9785ZM20.5348 14.3312V12.9091H18.5348V14.3312H20.5348ZM19.2174 11.9608C18.9538 12.049 18.6194 12.2012 18.3581 12.5062C18.0747 12.837 17.9785 13.2263 17.9785 13.5895H19.9785C19.9785 13.5792 19.9799 13.6053 19.9645 13.6526C19.9478 13.7041 19.9183 13.7591 19.877 13.8073C19.8012 13.8958 19.7449 13.8933 19.8522 13.8574L19.2174 11.9608Z" fill="white" mask="url(#path-3-inside-2_0_266)"/>
<path d="M9.76719 26.5708L9.83214 26.013H9.27055H8.21932C7.00394 26.013 5.99854 25.0542 5.99854 23.7922V7.22078C5.99854 6.01279 7.01133 5 8.21932 5H31.8398C33.0522 5 34.0486 6.01228 33.999 7.19989L33.9985 7.21033V7.22078V23.8543C33.9985 25.0616 32.9857 26.0751 31.7778 26.0751H17.3088H17.0739L16.9239 26.2558C15.8769 27.5181 14.667 28.9112 13.4462 30.132C12.2324 31.3458 11.0371 32.3592 10.0007 32.9151C9.82258 32.9733 9.72512 33 9.64139 33C9.54396 33 9.39851 32.9437 9.23914 32.837L9.23797 32.8362C9.04941 32.7108 8.92313 32.4182 8.96174 32.1489L8.9668 32.1136V32.1093L8.96701 32.1078C8.97031 32.0856 8.97544 32.0526 8.98245 32.0085C8.99355 31.9386 9.00865 31.8451 9.02725 31.73L9.04246 31.6358C9.09369 31.3185 9.16536 30.8728 9.24674 30.3455C9.4094 29.2917 9.61139 27.909 9.76719 26.5708ZM8.96407 32.1284L8.96421 32.1274C8.96376 32.1317 8.96343 32.1341 8.96342 32.1339C8.96342 32.1337 8.9636 32.132 8.96407 32.1284ZM23.1036 19.4469L23.1039 19.4466C23.7119 18.8386 23.9307 18.1445 23.9307 17.2994C23.9307 16.4796 23.7243 15.7527 23.1377 15.2501C22.6951 14.871 22.0685 14.5712 21.3333 14.3325V13.6258C21.5568 13.7361 21.7848 13.8772 22.0176 14.0517L22.4405 14.3685L22.7335 13.9288L23.7227 12.4447L23.9818 12.0559L23.6115 11.7711C22.8723 11.2025 22.0852 10.8729 21.3333 10.7024V10.4978V9.99783H20.8333H19.5346H19.0346V10.4978V10.6799C18.3312 10.8174 17.7568 11.1356 17.3261 11.5664C16.7908 12.1016 16.5 12.8512 16.5 13.6515C16.5 14.4106 16.707 15.1275 17.2782 15.626C17.7326 16.0737 18.3304 16.3376 19.0346 16.5592V17.2862C18.7608 17.1268 18.4556 16.9045 18.1382 16.6189L17.7505 16.2702L17.4183 16.6721L16.243 18.0942L15.9423 18.458L16.2882 18.7791C17.1176 19.549 18.0516 20.006 19.0346 20.2415V20.7626V21.2626H19.5346H20.8333H21.3333V20.7626V20.3378C22.0243 20.216 22.6123 19.9375 23.1036 19.4469Z" stroke="white"/>
</svg>
