<svg width="26" height="44" viewBox="0 0 26 44" fill="none" xmlns="http://www.w3.org/2000/svg">
<path d="M0.5 15.5C0.5 7.21573 7.21573 0.5 15.5 0.5H24.8874V20.5H0.5V15.5Z" fill="#72A5FF" stroke="#72A5FF"/>
<rect x="0.5" y="20.5" width="24.3874" height="3" fill="#72A5FF" stroke="#72A5FF"/>
<path d="M0.5 28.5C0.5 36.7843 7.21573 43.5 15.5 43.5H24.8874V23.5H0.5V28.5Z" fill="#72A5FF"/>
<path d="M24.8874 43.5V44H25.3874V43.5H24.8874ZM24.8874 23.5H25.3874V23H24.8874V23.5ZM0.5 23.5V23H0V23.5H0.5ZM15.5 44H24.8874V43H15.5V44ZM25.3874 43.5V23.5H24.3874V43.5H25.3874ZM24.8874 23H0.5V24H24.8874V23ZM0 23.5V28.5H1V23.5H0ZM15.5 43C7.49187 43 1 36.5081 1 28.5H0C0 37.0604 6.93959 44 15.5 44V43Z" fill="#72A5FF"/>
</svg>
