<svg xmlns="http://www.w3.org/2000/svg" width="19" height="19" fill="none" viewBox="0 0 19 19"><mask id="path-1-inside-1_0_303" fill="#fff"><path fill-rule="evenodd" d="M0.85729 9.5C0.866031 9.51406 0.87526 9.52881 0.884975 9.54424C0.983218 9.7003 1.131 9.9252 1.32656 10.196C1.71813 10.7382 2.29882 11.4609 3.05417 12.1825C4.56951 13.6303 6.75244 15.0417 9.5 15.0417C12.2476 15.0417 14.4305 13.6303 15.9458 12.1825C16.7012 11.4609 17.2819 10.7382 17.6734 10.196C17.869 9.9252 18.0168 9.7003 18.115 9.54424C18.1247 9.52881 18.134 9.51405 18.1427 9.5C18.134 9.48594 18.1247 9.47118 18.115 9.45575C18.0168 9.29969 17.869 9.0748 17.6734 8.80402C17.2819 8.26184 16.7012 7.53913 15.9458 6.81745C14.4305 5.36968 12.2476 3.95833 9.5 3.95833C6.75244 3.95833 4.56951 5.36968 3.05417 6.81745C2.29882 7.53913 1.71813 8.26184 1.32656 8.80402C1.131 9.0748 0.983218 9.29969 0.884975 9.45575C0.87526 9.47118 0.866031 9.48594 0.85729 9.5ZM18.6042 9.5C18.9495 9.30659 18.9494 9.30644 18.9494 9.30627L18.9484 9.30451L18.946 9.30027L18.9375 9.28547C18.9302 9.27285 18.9197 9.25475 18.906 9.23156C18.8785 9.18517 18.8381 9.11834 18.785 9.03399C18.6788 8.86534 18.5217 8.62637 18.3152 8.34051C17.9028 7.76941 17.291 7.00774 16.4927 6.24504C14.9008 4.72407 12.5316 3.16666 9.5 3.16666C6.46839 3.16666 4.09924 4.72407 2.50729 6.24504C1.70899 7.00774 1.09723 7.76941 0.68477 8.34051C0.478313 8.62637 0.321177 8.86534 0.215009 9.03399C0.16191 9.11834 0.121515 9.18517 0.0940314 9.23156C0.0802884 9.25475 0.0697697 9.27285 0.0625012 9.28547L0.0540379 9.30027L0.0516395 9.30451L0.0508996 9.30582C0.0508041 9.30599 0.0504664 9.30659 0.395833 9.5L0.0504664 9.30659C-0.0168221 9.42675 -0.0168221 9.57324 0.0504664 9.6934L0.395833 9.5C0.0504664 9.6934 0.0503709 9.69323 0.0504664 9.6934L0.0508996 9.69418L0.0516395 9.69549L0.0540379 9.69973L0.0625012 9.71452C0.0697697 9.72715 0.0802884 9.74524 0.0940314 9.76844C0.121515 9.81483 0.16191 9.88166 0.215009 9.966C0.321177 10.1347 0.478313 10.3736 0.68477 10.6595C1.09723 11.2306 1.70899 11.9923 2.50729 12.755C4.09924 14.2759 6.46839 15.8333 9.5 15.8333C12.5316 15.8333 14.9008 14.2759 16.4927 12.755C17.291 11.9923 17.9028 11.2306 18.3152 10.6595C18.5217 10.3736 18.6788 10.1347 18.785 9.966C18.8381 9.88166 18.8785 9.81483 18.906 9.76844C18.9197 9.74524 18.9302 9.72715 18.9375 9.71452L18.946 9.69973L18.9484 9.69549L18.9491 9.69418C18.9492 9.69401 18.9495 9.6934 18.6042 9.5ZM18.6042 9.5L18.9495 9.6934C19.0168 9.57324 19.0166 9.42643 18.9494 9.30627L18.6042 9.5Z" clip-rule="evenodd"/></mask><path fill="#fff" fill-rule="evenodd" d="M0.85729 9.5C0.866031 9.51406 0.87526 9.52881 0.884975 9.54424C0.983218 9.7003 1.131 9.9252 1.32656 10.196C1.71813 10.7382 2.29882 11.4609 3.05417 12.1825C4.56951 13.6303 6.75244 15.0417 9.5 15.0417C12.2476 15.0417 14.4305 13.6303 15.9458 12.1825C16.7012 11.4609 17.2819 10.7382 17.6734 10.196C17.869 9.9252 18.0168 9.7003 18.115 9.54424C18.1247 9.52881 18.134 9.51405 18.1427 9.5C18.134 9.48594 18.1247 9.47118 18.115 9.45575C18.0168 9.29969 17.869 9.0748 17.6734 8.80402C17.2819 8.26184 16.7012 7.53913 15.9458 6.81745C14.4305 5.36968 12.2476 3.95833 9.5 3.95833C6.75244 3.95833 4.56951 5.36968 3.05417 6.81745C2.29882 7.53913 1.71813 8.26184 1.32656 8.80402C1.131 9.0748 0.983218 9.29969 0.884975 9.45575C0.87526 9.47118 0.866031 9.48594 0.85729 9.5ZM18.6042 9.5C18.9495 9.30659 18.9494 9.30644 18.9494 9.30627L18.9484 9.30451L18.946 9.30027L18.9375 9.28547C18.9302 9.27285 18.9197 9.25475 18.906 9.23156C18.8785 9.18517 18.8381 9.11834 18.785 9.03399C18.6788 8.86534 18.5217 8.62637 18.3152 8.34051C17.9028 7.76941 17.291 7.00774 16.4927 6.24504C14.9008 4.72407 12.5316 3.16666 9.5 3.16666C6.46839 3.16666 4.09924 4.72407 2.50729 6.24504C1.70899 7.00774 1.09723 7.76941 0.68477 8.34051C0.478313 8.62637 0.321177 8.86534 0.215009 9.03399C0.16191 9.11834 0.121515 9.18517 0.0940314 9.23156C0.0802884 9.25475 0.0697697 9.27285 0.0625012 9.28547L0.0540379 9.30027L0.0516395 9.30451L0.0508996 9.30582C0.0508041 9.30599 0.0504664 9.30659 0.395833 9.5L0.0504664 9.30659C-0.0168221 9.42675 -0.0168221 9.57324 0.0504664 9.6934L0.395833 9.5C0.0504664 9.6934 0.0503709 9.69323 0.0504664 9.6934L0.0508996 9.69418L0.0516395 9.69549L0.0540379 9.69973L0.0625012 9.71452C0.0697697 9.72715 0.0802884 9.74524 0.0940314 9.76844C0.121515 9.81483 0.16191 9.88166 0.215009 9.966C0.321177 10.1347 0.478313 10.3736 0.68477 10.6595C1.09723 11.2306 1.70899 11.9923 2.50729 12.755C4.09924 14.2759 6.46839 15.8333 9.5 15.8333C12.5316 15.8333 14.9008 14.2759 16.4927 12.755C17.291 11.9923 17.9028 11.2306 18.3152 10.6595C18.5217 10.3736 18.6788 10.1347 18.785 9.966C18.8381 9.88166 18.8785 9.81483 18.906 9.76844C18.9197 9.74524 18.9302 9.72715 18.9375 9.71452L18.946 9.69973L18.9484 9.69549L18.9491 9.69418C18.9492 9.69401 18.9495 9.6934 18.6042 9.5ZM18.6042 9.5L18.9495 9.6934C19.0168 9.57324 19.0166 9.42643 18.9494 9.30627L18.6042 9.5Z" clip-rule="evenodd"/><path fill="#fff" d="M0.884975 9.54424L0.0387012 10.077L0.0387017 10.077L0.884975 9.54424ZM0.85729 9.5L0.00806027 8.97197C-0.192967 9.29529 -0.192967 9.70471 0.00806027 10.028L0.85729 9.5ZM1.32656 10.196L2.13724 9.61048L2.13724 9.61048L1.32656 10.196ZM3.05417 12.1825L3.74498 11.4595L3.05417 12.1825ZM15.9458 12.1825L15.255 11.4595L15.255 11.4595L15.9458 12.1825ZM17.6734 10.196L16.8628 9.61048V9.61048L17.6734 10.196ZM18.115 9.54424L17.2688 9.01147L17.2688 9.0115L18.115 9.54424ZM18.1427 9.5L18.9919 10.0281C19.193 9.70472 19.193 9.29527 18.9919 8.97194L18.1427 9.5ZM18.115 9.45575L17.2688 9.9885L17.2688 9.98852L18.115 9.45575ZM17.6734 8.80402L18.4841 8.21853V8.21853L17.6734 8.80402ZM15.9458 6.81745L15.255 7.54049V7.54049L15.9458 6.81745ZM3.05417 6.81745L2.36337 6.09441L3.05417 6.81745ZM1.32656 8.80402L0.515879 8.21853L0.515878 8.21853L1.32656 8.80402ZM0.884975 9.45575L0.0387017 8.923L0.0387012 8.923L0.884975 9.45575ZM18.6042 9.5L18.1148 8.62794C17.7993 8.805 17.604 9.13867 17.6042 9.50046C17.6043 9.86225 17.7999 10.1957 18.1156 10.3725L18.6042 9.5ZM18.9494 9.30627L19.8219 8.81766L19.8209 8.81592L18.9494 9.30627ZM18.9484 9.30451L19.8199 8.81415L19.8187 8.81204L18.9484 9.30451ZM18.946 9.30027L19.8163 8.8078L19.814 8.80371L18.946 9.30027ZM18.9375 9.28547L19.8055 8.78891L19.8041 8.78651L18.9375 9.28547ZM18.906 9.23156L19.7663 8.72187L19.7663 8.72185L18.906 9.23156ZM18.785 9.03399L19.6313 8.50124L19.6313 8.50124L18.785 9.03399ZM18.3152 8.34051L17.5045 8.926V8.926L18.3152 8.34051ZM16.4927 6.24504L17.1835 5.522L17.1835 5.522L16.4927 6.24504ZM2.50729 6.24504L1.81648 5.522V5.522L2.50729 6.24504ZM0.68477 8.34051L1.49545 8.926L1.49545 8.926L0.68477 8.34051ZM0.215009 9.03399L1.06128 9.56674L1.06128 9.56674L0.215009 9.03399ZM0.0940314 9.23156L-0.766315 8.72185L-0.766317 8.72185L0.0940314 9.23156ZM0.0625012 9.28547L-0.804145 8.78654L-0.805506 8.78892L0.0625012 9.28547ZM0.0540379 9.30027L-0.813978 8.80371L-0.816253 8.80773L0.0540379 9.30027ZM0.0516395 9.30451L-0.818654 8.81197L-0.819789 8.81398L0.0516395 9.30451ZM0.0508996 9.30582L-0.82053 8.8153L-0.821243 8.81657L0.0508996 9.30582ZM0.395833 9.5L0.884437 10.3725C1.20024 10.1957 1.39583 9.86195 1.39583 9.5C1.39583 9.13804 1.20024 8.80434 0.884437 8.62749L0.395833 9.5ZM0.0504664 9.30659L0.53907 8.43409C0.307667 8.3045 0.0342637 8.27215 -0.220994 8.34414C-0.476252 8.41614 -0.692454 8.58659 -0.82204 8.81799L0.0504664 9.30659ZM0.0508996 9.69418L-0.821246 10.1834L-0.820408 10.1849L0.0508996 9.69418ZM0.0516395 9.69549L-0.81967 10.1862L-0.818689 10.188L0.0516395 9.69549ZM0.0540379 9.69973L-0.8163 10.1922L-0.813963 10.1963L0.0540379 9.69973ZM0.0625012 9.71452L-0.805503 10.2111L-0.804142 10.2134L0.0625012 9.71452ZM0.0940314 9.76844L-0.766317 10.2781L-0.766315 10.2781L0.0940314 9.76844ZM0.215009 9.966L1.06128 9.43326L1.06128 9.43325L0.215009 9.966ZM0.68477 10.6595L-0.12591 11.245L-0.125909 11.245L0.68477 10.6595ZM2.50729 12.755L1.81648 13.478L2.50729 12.755ZM16.4927 12.755L17.1835 13.478L17.1835 13.478L16.4927 12.755ZM18.3152 10.6595L19.1259 11.245V11.245L18.3152 10.6595ZM18.785 9.966L19.6313 10.4988L19.6313 10.4988L18.785 9.966ZM18.906 9.76844L19.7663 10.2781L19.7663 10.2781L18.906 9.76844ZM18.9375 9.71452L19.8041 10.2135L19.8055 10.2111L18.9375 9.71452ZM18.946 9.69973L19.814 10.1963L19.8163 10.1921L18.946 9.69973ZM18.9484 9.69549L19.8187 10.1879L19.8197 10.1862L18.9484 9.69549ZM18.9491 9.69418L19.8204 10.1849L19.8221 10.182L18.9491 9.69418ZM18.9495 9.6934L18.4609 10.5659C18.9428 10.8358 19.5522 10.6639 19.822 10.182L18.9495 9.6934ZM1.73125 9.0115C1.72253 8.99765 1.71429 8.98447 1.70652 8.97197L0.00806027 10.028C0.0177749 10.0436 0.0279891 10.06 0.0387012 10.077L1.73125 9.0115ZM2.13724 9.61048C1.95544 9.35876 1.81948 9.15165 1.73125 9.0115L0.0387017 10.077C0.146955 10.249 0.306554 10.4916 0.515879 10.7815L2.13724 9.61048ZM3.74498 11.4595C3.04386 10.7896 2.50244 10.1161 2.13724 9.61048L0.515878 10.7815C0.933833 11.3602 1.55378 12.1321 2.36337 12.9056L3.74498 11.4595ZM9.5 14.0417C7.11112 14.0417 5.1634 12.8147 3.74498 11.4595L2.36337 12.9056C3.97562 14.446 6.39377 16.0417 9.5 16.0417V14.0417ZM15.255 11.4595C13.8366 12.8147 11.8889 14.0417 9.5 14.0417V16.0417C12.6062 16.0417 15.0244 14.446 16.6366 12.9056L15.255 11.4595ZM16.8628 9.61048C16.4976 10.1161 15.9561 10.7896 15.255 11.4595L16.6366 12.9056C17.4462 12.1321 18.0662 11.3602 18.4841 10.7815L16.8628 9.61048ZM17.2688 9.0115C17.1805 9.15165 17.0446 9.35876 16.8628 9.61048L18.4841 10.7815C18.6934 10.4916 18.853 10.249 18.9613 10.077L17.2688 9.0115ZM17.2935 8.97194C17.2857 8.98455 17.2774 8.99773 17.2688 9.01147L18.9613 10.077C18.9721 10.0599 18.9823 10.0436 18.9919 10.0281L17.2935 8.97194ZM17.2688 9.98852C17.2775 10.0023 17.2857 10.0155 17.2935 10.0281L18.9919 8.97194C18.9822 8.95637 18.972 8.94004 18.9613 8.92298L17.2688 9.98852ZM16.8628 9.38951C17.0446 9.64123 17.1805 9.84834 17.2688 9.9885L18.9613 8.923C18.853 8.75104 18.6934 8.50836 18.4841 8.21853L16.8628 9.38951ZM15.255 7.54049C15.9561 8.21035 16.4976 8.88385 16.8628 9.38951L18.4841 8.21853C18.0662 7.63982 17.4462 6.8679 16.6366 6.09441L15.255 7.54049ZM9.5 4.95833C11.8889 4.95833 13.8366 6.18531 15.255 7.54049L16.6366 6.09441C15.0244 4.55404 12.6062 2.95833 9.5 2.95833V4.95833ZM3.74498 7.54049C5.1634 6.18531 7.11112 4.95833 9.5 4.95833V2.95833C6.39377 2.95833 3.97562 4.55404 2.36337 6.09441L3.74498 7.54049ZM2.13724 9.38951C2.50244 8.88385 3.04386 8.21035 3.74498 7.54049L2.36337 6.09441C1.55378 6.8679 0.933833 7.63982 0.515879 8.21853L2.13724 9.38951ZM1.73125 9.9885C1.81948 9.84834 1.95544 9.64123 2.13724 9.38951L0.515878 8.21853C0.306554 8.50836 0.146956 8.75104 0.0387017 8.923L1.73125 9.9885ZM1.70652 10.028C1.71429 10.0155 1.72253 10.0023 1.73125 9.9885L0.0387012 8.923C0.0279891 8.94002 0.0177749 8.95635 0.00806027 8.97197L1.70652 10.028ZM19.0928 10.3725C19.2654 10.2759 19.3523 10.2271 19.3961 10.2025C19.4173 10.1906 19.4305 10.1832 19.4387 10.1785C19.44 10.1777 19.4513 10.1714 19.4634 10.1641C19.4672 10.1618 19.4748 10.1572 19.4843 10.1512C19.4907 10.1472 19.5135 10.1327 19.5413 10.1123C19.5552 10.1021 19.5825 10.0815 19.6148 10.0528C19.6403 10.03 19.7095 9.96683 19.7765 9.8683C19.8482 9.76281 19.9622 9.5497 19.9482 9.25828C19.9354 8.9909 19.8098 8.79607 19.8223 8.8185L18.0764 9.79405C18.0889 9.81648 17.9634 9.62166 17.9505 9.35429C17.9365 9.06287 18.0506 8.84977 18.1222 8.74429C18.1892 8.64577 18.2584 8.58258 18.2839 8.55985C18.3161 8.53115 18.3434 8.51059 18.3573 8.50042C18.385 8.48005 18.4077 8.46568 18.4139 8.46176C18.4232 8.45587 18.4306 8.45141 18.4341 8.44932C18.4449 8.44284 18.4534 8.43805 18.4493 8.44035C18.4468 8.44179 18.4384 8.44651 18.4165 8.45883C18.3741 8.48268 18.2883 8.53074 18.1156 8.62749L19.0928 10.3725ZM19.8187 8.81204L19.8163 8.80781L18.0756 9.79273L18.078 9.79697L19.8187 8.81204ZM19.814 8.80371L19.8055 8.78891L18.0695 9.78203L18.078 9.79683L19.814 8.80371ZM19.8041 8.78651C19.7949 8.77041 19.7822 8.74874 19.7663 8.72187L18.0456 9.74125C18.0572 9.76077 18.0656 9.77529 18.0709 9.78443L19.8041 8.78651ZM19.7663 8.72185C19.7345 8.66813 19.6894 8.5936 19.6313 8.50124L17.9387 9.56674C17.9868 9.64307 18.0225 9.70221 18.0456 9.74127L19.7663 8.72185ZM19.6313 8.50124C19.5151 8.31669 19.3461 8.05994 19.1259 7.75502L17.5045 8.926C17.6972 9.1928 17.8426 9.41399 17.9387 9.56674L19.6313 8.50124ZM19.1259 7.75502C18.6871 7.14739 18.036 6.33651 17.1835 5.522L15.8019 6.96808C16.546 7.67897 17.1185 8.39142 17.5045 8.926L19.1259 7.75502ZM17.1835 5.522C15.4949 3.90868 12.8905 2.16666 9.5 2.16666V4.16666C12.1727 4.16666 14.3066 5.53945 15.8019 6.96809L17.1835 5.522ZM9.5 2.16666C6.10947 2.16666 3.50509 3.90868 1.81648 5.522L3.19809 6.96809C4.69339 5.53945 6.82731 4.16666 9.5 4.16666V2.16666ZM1.81648 5.522C0.963957 6.33651 0.312931 7.14739 -0.125909 7.75502L1.49545 8.926C1.88153 8.39142 2.45403 7.67897 3.19809 6.96809L1.81648 5.522ZM-0.125909 7.75502C-0.34613 8.05994 -0.515085 8.31669 -0.631265 8.50124L1.06128 9.56674C1.15744 9.41399 1.30276 9.1928 1.49545 8.926L-0.125909 7.75502ZM-0.631264 8.50124C-0.689407 8.5936 -0.73449 8.66813 -0.766315 8.72185L0.954378 9.74127C0.977519 9.70221 1.01323 9.64307 1.06128 9.56674L-0.631264 8.50124ZM-0.766317 8.72185C-0.782236 8.74872 -0.794853 8.77041 -0.804142 8.78654L0.929144 9.7844C0.934392 9.77529 0.942813 9.76079 0.954379 9.74126L-0.766317 8.72185ZM-0.805506 8.78892L-0.813969 8.80371L0.922045 9.79682L0.930508 9.78203L-0.805506 8.78892ZM-0.816253 8.80773L-0.818651 8.81197L0.92193 9.79704L0.924329 9.79281L-0.816253 8.80773ZM-0.819789 8.81398L-0.820529 8.8153L0.922328 9.79634L0.923068 9.79503L-0.819789 8.81398ZM-0.821243 8.81657C-0.812906 8.80171 -0.926007 8.97934 -0.945863 9.22539C-0.96739 9.49214 -0.878812 9.69798 -0.810376 9.81398C-0.747861 9.91994 -0.680011 9.9895 -0.651445 10.0177C-0.617353 10.0513 -0.587832 10.0756 -0.571856 10.0883C-0.54015 10.1135 -0.51384 10.1312 -0.505302 10.1369C-0.493543 10.1448 -0.483978 10.1508 -0.47883 10.1541C-0.462173 10.1645 -0.447401 10.173 -0.445359 10.1742C-0.434793 10.1803 -0.419797 10.1888 -0.398254 10.201C-0.353302 10.2264 -0.265537 10.2758 -0.0927702 10.3725L0.884437 8.62749C0.711837 8.53084 0.627087 8.48318 0.58589 8.45989C0.575694 8.45413 0.56861 8.45011 0.563789 8.44736C0.558696 8.44446 0.557197 8.44359 0.557735 8.4439C0.558003 8.44406 0.559923 8.44517 0.562815 8.44689C0.564765 8.44804 0.572202 8.45245 0.581886 8.45851C0.586706 8.46152 0.596027 8.4674 0.607605 8.47516C0.615961 8.48076 0.642153 8.49836 0.673783 8.52354C0.689721 8.53623 0.719214 8.56043 0.753285 8.59405C0.781832 8.62222 0.849669 8.69176 0.912177 8.79771C0.980606 8.91369 1.06918 9.11952 1.04766 9.38627C1.0278 9.63231 0.914702 9.80994 0.923043 9.79507L-0.821243 8.81657ZM0.884437 8.62749L0.53907 8.43409L-0.438137 10.1791L-0.0927702 10.3725L0.884437 8.62749ZM-0.82204 8.81799C-1.05932 9.2417 -1.05932 9.75829 -0.82204 10.182L0.922973 9.2048C1.02568 9.3882 1.02568 9.6118 0.922973 9.79519L-0.82204 8.81799ZM0.53907 10.5659L0.884437 10.3725L-0.0927702 8.62749L-0.438137 8.8209L0.53907 10.5659ZM-0.0927702 8.62749C-0.26528 8.7241 -0.351499 8.77232 -0.394572 8.79642C-0.415497 8.80812 -0.427561 8.81487 -0.434071 8.81853C-0.434843 8.81896 -0.443616 8.82387 -0.452475 8.82903C-0.455323 8.83069 -0.461589 8.83436 -0.469417 8.83913C-0.474247 8.84207 -0.494506 8.85437 -0.519351 8.8716C-0.531659 8.88014 -0.557272 8.89825 -0.587837 8.9236C-0.610858 8.94269 -0.680509 9.00123 -0.749907 9.09388C-0.822143 9.19032 -0.957152 9.40822 -0.94921 9.71894C-0.945427 9.86697 -0.909618 9.98663 -0.876643 10.0682C-0.860994 10.1069 -0.845941 10.1371 -0.836617 10.155C-0.83295 10.162 -0.827353 10.1724 -0.825465 10.1758C-0.823578 10.1792 -0.821677 10.1827 -0.821677 10.1827L0.922609 9.20415C0.906402 9.17526 1.04287 9.38368 1.05014 9.66785C1.05808 9.97856 0.923072 10.1965 0.850844 10.2929C0.781454 10.3855 0.711816 10.4441 0.688816 10.4631C0.658273 10.4885 0.632689 10.5065 0.620421 10.5151C0.595656 10.5322 0.575519 10.5445 0.570875 10.5473C0.563232 10.5519 0.557216 10.5555 0.554702 10.5569C0.547179 10.5613 0.541096 10.5647 0.545716 10.5621C0.54999 10.5597 0.559517 10.5544 0.581775 10.5419C0.625067 10.5177 0.71158 10.4693 0.884437 10.3725L-0.0927702 8.62749ZM-0.821678 10.1827L-0.821245 10.1834L0.923044 9.20493L0.922611 9.20415L-0.821678 10.1827ZM-0.820408 10.1849L-0.819668 10.1862L0.922947 9.20475L0.922208 9.20344L-0.820408 10.1849ZM-0.818689 10.188L-0.816291 10.1922L0.924366 9.20726L0.921968 9.20302L-0.818689 10.188ZM-0.813963 10.1963L-0.8055 10.2111L0.930502 9.21796L0.922039 9.20317L-0.813963 10.1963ZM-0.804142 10.2134C-0.794853 10.2296 -0.782236 10.2513 -0.766317 10.2781L0.954379 9.25873C0.942813 9.23921 0.934392 9.22471 0.929144 9.21559L-0.804142 10.2134ZM-0.766315 10.2781C-0.73449 10.3319 -0.689407 10.4064 -0.631264 10.4988L1.06128 9.43325C1.01323 9.35692 0.977519 9.29779 0.954378 9.25873L-0.766315 10.2781ZM-0.631265 10.4988C-0.515085 10.6833 -0.346129 10.9401 -0.12591 11.245L1.49545 10.074C1.30276 9.80719 1.15744 9.586 1.06128 9.43326L-0.631265 10.4988ZM-0.125909 11.245C0.312931 11.8526 0.963957 12.6635 1.81648 13.478L3.19809 12.0319C2.45403 11.321 1.88153 10.6086 1.49545 10.074L-0.125909 11.245ZM1.81648 13.478C3.50509 15.0913 6.10947 16.8333 9.5 16.8333V14.8333C6.82731 14.8333 4.69339 13.4605 3.19809 12.0319L1.81648 13.478ZM9.5 16.8333C12.8905 16.8333 15.4949 15.0913 17.1835 13.478L15.8019 12.0319C14.3066 13.4605 12.1727 14.8333 9.5 14.8333V16.8333ZM17.1835 13.478C18.036 12.6635 18.6871 11.8526 19.1259 11.245L17.5045 10.074C17.1185 10.6086 16.546 11.321 15.8019 12.0319L17.1835 13.478ZM19.1259 11.245C19.3461 10.9401 19.5151 10.6833 19.6313 10.4988L17.9387 9.43325C17.8426 9.586 17.6972 9.80719 17.5045 10.074L19.1259 11.245ZM19.6313 10.4988C19.6894 10.4064 19.7345 10.3319 19.7663 10.2781L18.0456 9.25873C18.0225 9.29779 17.9868 9.35692 17.9387 9.43326L19.6313 10.4988ZM19.7663 10.2781C19.7822 10.2513 19.7949 10.2296 19.8041 10.2135L18.0709 9.21556C18.0656 9.22471 18.0572 9.23922 18.0456 9.25875L19.7663 10.2781ZM19.8055 10.2111L19.814 10.1963L18.078 9.20316L18.0695 9.21795L19.8055 10.2111ZM19.8163 10.1921L19.8187 10.1879L18.078 9.20309L18.0756 9.20733L19.8163 10.1921ZM19.8221 10.182C19.8138 10.1968 19.9265 10.0191 19.946 9.77309C19.9671 9.50665 19.8784 9.30121 19.8101 9.1855C19.7476 9.07975 19.6798 9.01032 19.6513 8.98217C19.6172 8.94858 19.5878 8.92438 19.5718 8.91167C19.5401 8.88646 19.5138 8.86878 19.5053 8.86307C19.4935 8.8552 19.484 8.84916 19.4788 8.84594C19.4622 8.83552 19.4474 8.82702 19.4454 8.82583C19.4348 8.81971 19.4198 8.81117 19.3983 8.799C19.3533 8.77359 19.2655 8.72424 19.0928 8.62749L18.1156 10.3725C18.2882 10.4692 18.3729 10.5168 18.4141 10.5401C18.4243 10.5459 18.4314 10.5499 18.4362 10.5526C18.4413 10.5555 18.4428 10.5564 18.4423 10.5561C18.442 10.5559 18.4401 10.5548 18.4372 10.5531C18.4352 10.552 18.4278 10.5475 18.4181 10.5415C18.4133 10.5385 18.404 10.5326 18.3924 10.5248C18.3841 10.5193 18.3579 10.5017 18.3263 10.4765C18.3104 10.4638 18.2809 10.4397 18.2469 10.4061C18.2183 10.378 18.1506 10.3085 18.0881 10.2028C18.0198 10.0871 17.9311 9.88167 17.9522 9.61524C17.9717 9.36928 18.0844 9.19156 18.0761 9.2064L19.8221 10.182ZM18.1156 10.3725L18.4609 10.5659L19.4381 8.8209L19.0928 8.62749L18.1156 10.3725ZM19.822 10.182C20.0598 9.7574 20.0586 9.24049 19.8219 8.81767L18.0769 9.79488C17.9746 9.61237 17.9738 9.38909 18.077 9.20479L19.822 10.182ZM18.4599 8.43422L18.1148 8.62794L19.0936 10.3721L19.4388 10.1783L18.4599 8.43422ZM19.8209 8.81592L19.8199 8.81415L18.0768 9.79486L18.0778 9.79663L19.8209 8.81592ZM19.8197 10.1862L19.8204 10.1849L18.0778 9.20344L18.0771 9.20475L19.8197 10.1862Z" mask="url(#path-1-inside-1_0_303)"/><path fill="#fff" fill-rule="evenodd" stroke="#fff" stroke-linecap="round" stroke-linejoin="round" d="M9.5 7.91667C8.62555 7.91667 7.91667 8.62555 7.91667 9.5C7.91667 10.3745 8.62555 11.0833 9.5 11.0833C10.3745 11.0833 11.0833 10.3745 11.0833 9.5C11.0833 8.62555 10.3745 7.91667 9.5 7.91667ZM7.125 9.5C7.125 8.18832 8.18832 7.125 9.5 7.125C10.8117 7.125 11.875 8.18832 11.875 9.5C11.875 10.8117 10.8117 11.875 9.5 11.875C8.18832 11.875 7.125 10.8117 7.125 9.5Z" clip-rule="evenodd"/></svg>