<svg xmlns="http://www.w3.org/2000/svg" width="25" height="25" fill="none" viewBox="0 0 25 25"><path fill="#000" fill-rule="evenodd" d="M12.5002 3.12492C7.32249 3.12492 3.12516 7.32225 3.12516 12.4999C3.12516 17.6776 7.32249 21.8749 12.5002 21.8749C17.6778 21.8749 21.8752 17.6776 21.8752 12.4999C21.8752 7.32225 17.6778 3.12492 12.5002 3.12492ZM2.0835 12.4999C2.0835 6.74695 6.7472 2.08325 12.5002 2.08325C18.2531 2.08325 22.9168 6.74695 22.9168 12.4999C22.9168 18.2529 18.2531 22.9166 12.5002 22.9166C6.7472 22.9166 2.0835 18.2529 2.0835 12.4999Z" clip-rule="evenodd"/><path fill="#000" fill-rule="evenodd" d="M12.4998 6.25C12.7875 6.25 13.0207 6.48318 13.0207 6.77083V13.3259L16.514 16.8192C16.7174 17.0226 16.7174 17.3524 16.514 17.5558C16.3106 17.7592 15.9808 17.7592 15.7774 17.5558L12.1316 13.91C12.0339 13.8123 11.979 13.6798 11.979 13.5417V6.77083C11.979 6.48318 12.2122 6.25 12.4998 6.25Z" clip-rule="evenodd"/></svg>