<svg xmlns="http://www.w3.org/2000/svg" width="20" height="20" fill="none" viewBox="0 0 20 20"><path fill="#0077E4" fill-rule="evenodd" d="M7.48742 4.19858C7.41601 3.69744 6.98593 3.3274 6.48002 3.33328L6.47518 3.33334L4.34336 3.33331C4.34263 3.33338 4.33722 3.33377 4.32081 3.33541C4.31974 3.33552 4.31857 3.33563 4.31732 3.33576C4.30184 3.33733 4.27286 3.34026 4.23971 3.34128C3.69187 3.39465 3.28864 3.87984 3.33976 4.42498C3.56644 6.55873 4.29403 8.60365 5.45808 10.3982L5.46012 10.4014C6.51896 12.0664 7.93337 13.4808 9.60633 14.5396L9.61027 14.5421C11.4047 15.706 13.4508 16.4261 15.5792 16.6608C15.5897 16.662 15.6002 16.6635 15.6106 16.6655C15.6122 16.6656 15.615 16.6658 15.6191 16.666C15.6311 16.6666 15.6447 16.6666 15.6668 16.6666C16.2169 16.6666 16.6668 16.2147 16.6668 15.6583V13.5154C16.6787 13.0009 16.308 12.5692 15.8056 12.5049L15.8031 12.5046C15.0889 12.4088 14.3921 12.2346 13.7133 11.9822L13.7081 11.9802C13.3453 11.8398 12.9282 11.9279 12.6531 12.2029L12.6518 12.2043L11.7434 13.1043C11.6106 13.2359 11.4063 13.2629 11.2438 13.1703C9.39633 12.117 7.86727 10.5969 6.8132 8.748C6.71987 8.58428 6.74804 8.3783 6.88191 8.24566L7.78777 7.34811C8.05593 7.07247 8.14509 6.65234 8.00963 6.28685M7.48742 4.19858C7.58326 4.9122 7.75744 5.60852 8.00963 6.28685L7.48742 4.19858ZM6.47291 2.49998C7.39878 2.49048 8.18372 3.16938 8.31276 4.0834L8.31316 4.08624C8.40068 4.73872 8.55978 5.37528 8.79073 5.99644C9.0381 6.66328 8.87814 7.42543 8.38129 7.93309L8.37681 7.93766L7.69876 8.60943C8.61538 10.114 9.87817 11.3702 11.3849 12.2864L12.0639 11.6137C12.0641 11.6135 12.0643 11.6133 12.0645 11.6131C12.5721 11.106 13.3365 10.9441 14.0061 11.202C14.6261 11.4323 15.2615 11.5911 15.9127 11.6785C16.8414 11.798 17.5191 12.5966 17.5002 13.5295V15.6583C17.5002 16.6686 16.6835 17.5 15.6668 17.5C15.6648 17.5 15.6625 17.5 15.6599 17.5C15.6264 17.5001 15.5508 17.5003 15.474 17.4876C13.2248 17.2374 11.0599 16.4752 9.15872 15.2425C7.38308 14.1184 5.8819 12.6171 4.75794 10.8502C3.52299 8.94576 2.75104 6.7754 2.51084 4.51059L2.51039 4.50636C2.41305 3.48975 3.16968 2.59592 4.18151 2.50981M6.47291 2.49998H4.34185C4.29953 2.49998 4.26033 2.50394 4.24137 2.50586C4.24012 2.50599 4.23896 2.5061 4.23789 2.50621C4.22125 2.50787 4.21592 2.50825 4.2153 2.50831" clip-rule="evenodd"/></svg>