<svg width="20" height="20" viewBox="0 0 20 20" fill="none" xmlns="http://www.w3.org/2000/svg">
<path fill-rule="evenodd" clip-rule="evenodd" d="M2.5 7.08317C2.5 6.85305 2.68655 6.6665 2.91667 6.6665H17.0833C17.3135 6.6665 17.5 6.85305 17.5 7.08317C17.5 7.31329 17.3135 7.49984 17.0833 7.49984H2.91667C2.68655 7.49984 2.5 7.31329 2.5 7.08317Z" fill="black"/>
<path fill-rule="evenodd" clip-rule="evenodd" d="M2.5 12.9167C2.5 12.6865 2.68655 12.5 2.91667 12.5H17.0833C17.3135 12.5 17.5 12.6865 17.5 12.9167C17.5 13.1468 17.3135 13.3333 17.0833 13.3333H2.91667C2.68655 13.3333 2.5 13.1468 2.5 12.9167Z" fill="black"/>
<path fill-rule="evenodd" clip-rule="evenodd" d="M7.96048 1.66883C8.18934 1.69292 8.35533 1.89797 8.33124 2.12682L6.66457 17.9602C6.64048 18.189 6.43543 18.355 6.20658 18.3309C5.97772 18.3068 5.81173 18.1018 5.83582 17.8729L7.50249 2.03959C7.52658 1.81073 7.73163 1.64474 7.96048 1.66883Z" fill="black"/>
<path fill-rule="evenodd" clip-rule="evenodd" d="M13.7935 1.66883C14.0223 1.69292 14.1883 1.89797 14.1642 2.12682L12.4976 17.9602C12.4735 18.189 12.2684 18.355 12.0396 18.3309C11.8107 18.3068 11.6447 18.1018 11.6688 17.8729L13.3355 2.03959C13.3596 1.81073 13.5646 1.64474 13.7935 1.66883Z" fill="black"/>
</svg>
