<svg xmlns="http://www.w3.org/2000/svg" width="20" height="20" fill="none" viewBox="0 0 20 20"><path fill="#000" fill-rule="evenodd" d="M9.99984 2.49984C5.8577 2.49984 2.49984 5.8577 2.49984 9.99984C2.49984 14.142 5.8577 17.4998 9.99984 17.4998C14.142 17.4998 17.4998 14.142 17.4998 9.99984C17.4998 5.8577 14.142 2.49984 9.99984 2.49984ZM1.6665 9.99984C1.6665 5.39746 5.39746 1.6665 9.99984 1.6665C14.6022 1.6665 18.3332 5.39746 18.3332 9.99984C18.3332 14.6022 14.6022 18.3332 9.99984 18.3332C5.39746 18.3332 1.6665 14.6022 1.6665 9.99984Z" clip-rule="evenodd"/><path fill="#000" fill-rule="evenodd" d="M10.0002 5.83333C8.15921 5.83333 6.66683 7.32572 6.66683 9.16667C6.66683 11.0076 8.15921 12.5 10.0002 12.5C11.8411 12.5 13.3335 11.0076 13.3335 9.16667C13.3335 7.32572 11.8411 5.83333 10.0002 5.83333ZM5.8335 9.16667C5.8335 6.86548 7.69898 5 10.0002 5C12.3013 5 14.1668 6.86548 14.1668 9.16667C14.1668 11.4679 12.3013 13.3333 10.0002 13.3333C7.69898 13.3333 5.8335 11.4679 5.8335 9.16667Z" clip-rule="evenodd"/><path fill="#000" fill-rule="evenodd" d="M9.99974 13.3333C7.87425 13.3333 5.97681 14.3289 4.76116 15.8818L4.10498 15.3682C5.47267 13.6211 7.60857 12.5 9.99974 12.5C12.3289 12.5 14.4117 13.5593 15.7877 15.2264L15.1451 15.7569C13.9211 14.274 12.0706 13.3333 9.99974 13.3333Z" clip-rule="evenodd"/></svg>