<svg xmlns="http://www.w3.org/2000/svg" width="25" height="25" fill="none" viewBox="0 0 25 25"><path fill="#fff" fill-rule="evenodd" d="M3.64551 5.20299C3.36024 5.20299 3.12467 5.43738 3.12467 5.72123V19.2784C3.12467 19.5623 3.36024 19.7967 3.64551 19.7967H21.3538C21.6391 19.7967 21.8747 19.5623 21.8747 19.2784V5.72123C21.8747 5.43738 21.6391 5.20299 21.3538 5.20299H3.64551ZM2.08301 5.72123C2.08301 4.86495 2.78494 4.1665 3.64551 4.1665H21.3538C22.2144 4.1665 22.9163 4.86495 22.9163 5.72123V19.2784C22.9163 20.1347 22.2144 20.8332 21.3538 20.8332H3.64551C2.78494 20.8332 2.08301 20.1347 2.08301 19.2784V5.72123Z" clip-rule="evenodd"/><path fill="#fff" fill-rule="evenodd" d="M22.8215 6.47114C22.987 6.70638 22.9305 7.03128 22.6953 7.19682L13.4355 13.713C12.8798 14.1857 12.1139 14.1788 11.556 13.7147L2.30392 7.19666C2.06877 7.031 2.01244 6.70607 2.1781 6.47092C2.34377 6.23576 2.66869 6.17943 2.90385 6.34509L12.1747 12.8763C12.1885 12.8861 12.2018 12.8964 12.2146 12.9075C12.397 13.0646 12.6042 13.0581 12.769 12.9122C12.7835 12.8994 12.7987 12.8873 12.8146 12.8762L22.0958 6.34494C22.3311 6.1794 22.656 6.2359 22.8215 6.47114Z" clip-rule="evenodd"/></svg>