<svg xmlns="http://www.w3.org/2000/svg" width="8" height="11" fill="none" viewBox="0 0 8 11"><path fill="#fff" d="M3.24775 6.98714C3.24775 6.47068 3.36197 6.0436 3.59041 5.70592C3.82877 5.36823 4.17143 4.99578 4.61837 4.58857C4.94612 4.29061 5.18449 4.04231 5.33347 3.84367C5.49238 3.6351 5.57183 3.4017 5.57183 3.14347C5.57183 2.77598 5.42285 2.48796 5.1249 2.27939C4.83687 2.06088 4.44952 1.95163 3.96286 1.95163C3.49605 1.95163 3.07891 2.05095 2.71143 2.24959C2.35388 2.4383 2.05095 2.70646 1.80265 3.05408L0 1.99633C0.417143 1.36068 0.978299 0.869047 1.68347 0.521428C2.39857 0.17381 3.24279 0 4.21612 0C5.3583 0 6.27204 0.243333 6.95734 0.729999C7.65258 1.21667 8.0002 1.89204 8.0002 2.75612C8.0002 3.16333 7.93068 3.52088 7.79163 3.82877C7.66251 4.13666 7.49864 4.39986 7.3 4.61836C7.11129 4.82694 6.86299 5.07027 6.5551 5.34836C6.18762 5.67612 5.91945 5.95421 5.75061 6.18265C5.58177 6.40115 5.49734 6.66932 5.49734 6.98714H3.24775ZM4.38 10.7265C3.97279 10.7265 3.63013 10.5974 3.35204 10.3392C3.08388 10.071 2.94979 9.74823 2.94979 9.37081C2.94979 8.9934 3.08388 8.68054 3.35204 8.43224C3.6202 8.17401 3.96286 8.04489 4.38 8.04489C4.79714 8.04489 5.13979 8.17401 5.40796 8.43224C5.67612 8.68054 5.8102 8.9934 5.8102 9.37081C5.8102 9.74823 5.67115 10.071 5.39306 10.3392C5.1249 10.5974 4.78721 10.7265 4.38 10.7265Z"/></svg>