<svg width="25" height="25" viewBox="0 0 25 25" fill="none" xmlns="http://www.w3.org/2000/svg">
<path fill-rule="evenodd" clip-rule="evenodd" d="M17.1873 2.08325C17.475 2.08325 17.7082 2.31644 17.7082 2.60409V6.77075C17.7082 7.0584 17.475 7.29158 17.1873 7.29158C16.8997 7.29158 16.6665 7.0584 16.6665 6.77075V2.60409C16.6665 2.31644 16.8997 2.08325 17.1873 2.08325Z" fill="black"/>
<path fill-rule="evenodd" clip-rule="evenodd" d="M7.81234 2.08325C8.09999 2.08325 8.33317 2.31644 8.33317 2.60409V6.77075C8.33317 7.0584 8.09999 7.29158 7.81234 7.29158C7.52469 7.29158 7.2915 7.0584 7.2915 6.77075V2.60409C7.2915 2.31644 7.52469 2.08325 7.81234 2.08325Z" fill="black"/>
<path fill-rule="evenodd" clip-rule="evenodd" d="M2.0835 9.89583C2.0835 9.60818 2.31668 9.375 2.60433 9.375H22.396C22.6836 9.375 22.9168 9.60818 22.9168 9.89583C22.9168 10.1835 22.6836 10.4167 22.396 10.4167H2.60433C2.31668 10.4167 2.0835 10.1835 2.0835 9.89583Z" fill="black"/>
<path fill-rule="evenodd" clip-rule="evenodd" d="M3.646 5.20841C3.41635 5.20841 3.12516 5.43709 3.12516 5.86466V21.2292C3.12516 21.6496 3.41915 21.8855 3.646 21.8855H21.3543C21.5812 21.8855 21.8752 21.6496 21.8752 21.2292V5.86466C21.8752 5.44435 21.5812 5.20841 21.3543 5.20841H3.646ZM2.0835 5.86466C2.0835 4.97974 2.72981 4.16675 3.646 4.16675H21.3543C22.2733 4.16675 22.9168 4.99331 22.9168 5.86466V21.2292C22.9168 22.1006 22.2733 22.9272 21.3543 22.9272H3.646C2.72701 22.9272 2.0835 22.1006 2.0835 21.2292V5.86466Z" fill="black"/>
</svg>
