<svg width="25" height="25" viewBox="0 0 25 25" fill="none" xmlns="http://www.w3.org/2000/svg">
<path fill-rule="evenodd" clip-rule="evenodd" d="M12.4998 3.12492C8.49851 3.12492 5.20817 6.54471 5.20817 10.802C5.20817 13.2675 6.45783 15.6309 7.9911 17.5948C9.51633 19.5483 11.2733 21.0442 12.1857 21.7671C12.372 21.9109 12.6277 21.9109 12.814 21.7671C13.726 21.0444 15.4831 19.546 17.0085 17.591C18.542 15.6256 19.7915 13.2622 19.7915 10.802C19.7915 6.54471 16.5012 3.12492 12.4998 3.12492ZM4.1665 10.802C4.1665 6.01763 7.87616 2.08325 12.4998 2.08325C17.1235 2.08325 20.8332 6.01763 20.8332 10.802C20.8332 13.6023 19.4213 16.192 17.8297 18.2318C16.2313 20.2805 14.4013 21.8385 13.4587 22.5853L13.455 22.5881L13.455 22.5881C12.8919 23.0261 12.1077 23.0261 11.5447 22.5881L11.541 22.5853C10.5986 21.8388 8.76862 20.2833 7.17004 18.2358C5.5783 16.1971 4.1665 13.6074 4.1665 10.802Z" fill="black"/>
<path fill-rule="evenodd" clip-rule="evenodd" d="M12.5002 7.29167C10.7743 7.29167 9.37516 8.69078 9.37516 10.4167C9.37516 12.1426 10.7743 13.5417 12.5002 13.5417C14.2261 13.5417 15.6252 12.1426 15.6252 10.4167C15.6252 8.69078 14.2261 7.29167 12.5002 7.29167ZM8.3335 10.4167C8.3335 8.11548 10.199 6.25 12.5002 6.25C14.8013 6.25 16.6668 8.11548 16.6668 10.4167C16.6668 12.7179 14.8013 14.5833 12.5002 14.5833C10.199 14.5833 8.3335 12.7179 8.3335 10.4167Z" fill="black"/>
</svg>
