<svg xmlns="http://www.w3.org/2000/svg" width="36" height="56" fill="none" viewBox="0 0 36 56"><path fill="#36F" stroke="#36F" d="M10.4136 20.5C10.4136 9.45431 19.3679 0.5 30.4136 0.5H34.801V25.5H10.4136V20.5Z"/><rect width="24.387" height="5" x="10.414" y="25.5" fill="#36F" stroke="#36F"/><path fill="#36F" fill-rule="evenodd" d="M11.4703 41.9326C10.785 39.9139 10.4134 37.7503 10.4134 35.5V30.5H34.8008V55.5H30.4134C26.0703 55.5 22.0505 54.1157 18.7712 51.7641C14.5374 53.6642 7.9916 55.3737 0.14502 54.3633C2.39123 53.6815 11.0552 49.5906 10.7343 41.4087C10.9369 41.606 11.1849 41.7799 11.4703 41.9326Z" clip-rule="evenodd"/><path fill="#36F" d="M11.4703 41.9326L11.2345 42.3735L12.3507 42.9706L11.9438 41.7718L11.4703 41.9326ZM10.4134 30.5V30H9.91336V30.5H10.4134ZM34.8008 30.5H35.3008V30H34.8008V30.5ZM34.8008 55.5V56H35.3008V55.5H34.8008ZM18.7712 51.7641L19.0626 51.3578L18.8289 51.1902L18.5665 51.308L18.7712 51.7641ZM0.14502 54.3633L-0.000208169 53.8848L0.0811593 54.8592L0.14502 54.3633ZM10.7343 41.4087L11.0831 41.0505L10.1856 40.1764L10.2347 41.4283L10.7343 41.4087ZM9.91336 35.5C9.91336 37.8057 10.2942 40.0235 10.9968 42.0933L11.9438 41.7718C11.2758 39.8042 10.9134 37.695 10.9134 35.5H9.91336ZM9.91336 30.5V35.5H10.9134V30.5H9.91336ZM34.8008 30H10.4134V31H34.8008V30ZM35.3008 55.5V30.5H34.3008V55.5H35.3008ZM30.4134 56H34.8008V55H30.4134V56ZM18.4799 52.1705C21.8412 54.5809 25.9623 56 30.4134 56V55C26.1782 55 22.2597 53.6504 19.0626 51.3578L18.4799 52.1705ZM0.0811593 54.8592C8.03415 55.8833 14.6729 54.1514 18.9759 52.2203L18.5665 51.308C14.4019 53.1769 7.94905 54.8641 0.20888 53.8674L0.0811593 54.8592ZM10.2347 41.4283C10.3872 45.3182 8.41021 48.2531 6.07088 50.3241C3.72502 52.401 1.06351 53.562 -0.000208169 53.8848L0.290247 54.8417C1.47274 54.4828 4.26631 53.2574 6.73376 51.0729C9.20774 48.8826 11.4022 45.6811 11.2339 41.3891L10.2347 41.4283ZM11.7061 41.4917C11.4528 41.3561 11.2453 41.2085 11.0831 41.0505L10.3855 41.7669C10.6285 42.0036 10.917 42.2036 11.2345 42.3735L11.7061 41.4917Z"/></svg>