<svg width="26" height="56" viewBox="0 0 26 56" fill="none" xmlns="http://www.w3.org/2000/svg">
<path d="M0.5 20.5C0.5 9.45431 9.4543 0.5 20.5 0.5H24.8874V25.5H0.5V20.5Z" fill="#3366FF" stroke="#3366FF"/>
<rect x="0.5" y="25.5" width="24.3874" height="5" fill="#3366FF" stroke="#3366FF"/>
<path d="M0.5 35.5C0.5 46.5457 9.4543 55.5 20.5 55.5H24.8874V30.5H0.5V35.5Z" fill="#3366FF"/>
<path d="M24.8874 55.5V56H25.3874V55.5H24.8874ZM24.8874 30.5H25.3874V30H24.8874V30.5ZM0.5 30.5V30H0V30.5H0.5ZM20.5 56H24.8874V55H20.5V56ZM25.3874 55.5V30.5H24.3874V55.5H25.3874ZM24.8874 30H0.5V31H24.8874V30ZM0 30.5V35.5H1V30.5H0ZM20.5 55C9.73044 55 1 46.2696 1 35.5H0C0 46.8218 9.17816 56 20.5 56V55Z" fill="#3366FF"/>
</svg>
