<svg xmlns="http://www.w3.org/2000/svg" width="15" height="13" fill="none" viewBox="0 0 15 13"><g clip-path="url(#clip0_0_399)"><path fill="#000" fill-rule="evenodd" d="M3.83216 0.629496C3.94879 0.519243 4.14647 0.511809 4.27369 0.612892L10.9622 5.92745C11.3437 6.23326 11.3488 6.76449 10.9603 7.06869C10.9599 7.06901 10.9595 7.06934 10.9591 7.06966L4.2738 12.3871C4.14665 12.4882 3.94896 12.4809 3.83227 12.3707C3.71557 12.2604 3.72405 12.0891 3.8512 11.988L10.5409 6.66704C10.651 6.58116 10.6559 6.42012 10.5382 6.32538C10.538 6.32529 10.5383 6.32548 10.5382 6.32538L3.85132 1.01215C3.7241 0.91107 3.71553 0.739749 3.83216 0.629496Z" clip-rule="evenodd"/></g><defs><clipPath id="clip0_0_399"><rect width="15" height="13" fill="#fff"/></clipPath></defs></svg>