<svg width="15" height="15" viewBox="0 0 15 15" fill="none" xmlns="http://www.w3.org/2000/svg">
<path fill-rule="evenodd" clip-rule="evenodd" d="M6.25 1.875C3.83375 1.875 1.875 3.83375 1.875 6.25C1.875 8.66625 3.83375 10.625 6.25 10.625C8.66625 10.625 10.625 8.66625 10.625 6.25C10.625 3.83375 8.66625 1.875 6.25 1.875ZM1.25 6.25C1.25 3.48858 3.48858 1.25 6.25 1.25C9.01142 1.25 11.25 3.48858 11.25 6.25C11.25 9.01142 9.01142 11.25 6.25 11.25C3.48858 11.25 1.25 9.01142 1.25 6.25Z" fill="black"/>
<path fill-rule="evenodd" clip-rule="evenodd" d="M9.46653 9.46653C9.58857 9.34449 9.78643 9.34449 9.90847 9.46653L13.6585 13.2165C13.7805 13.3386 13.7805 13.5364 13.6585 13.6585C13.5364 13.7805 13.3386 13.7805 13.2165 13.6585L9.46653 9.90847C9.34449 9.78643 9.34449 9.58857 9.46653 9.46653Z" fill="black"/>
</svg>
