<svg xmlns="http://www.w3.org/2000/svg" width="23" height="23" fill="none" viewBox="0 0 23 23"><path fill="#fff" fill-rule="evenodd" d="M11.5002 20.125C16.2636 20.125 20.1252 16.2634 20.1252 11.5C20.1252 6.73652 16.2636 2.87498 11.5002 2.87498C6.73671 2.87498 2.87516 6.73652 2.87516 11.5C2.87516 16.2634 6.73671 20.125 11.5002 20.125ZM21.0835 11.5C21.0835 16.7927 16.7929 21.0833 11.5002 21.0833C6.20743 21.0833 1.91683 16.7927 1.91683 11.5C1.91683 6.20725 6.20744 1.91664 11.5002 1.91664C16.7929 1.91664 21.0835 6.20725 21.0835 11.5Z" clip-rule="evenodd"/><path fill="#fff" fill-rule="evenodd" d="M11.3814 15.1697C11.2072 15.3688 10.9045 15.389 10.7053 15.2147L6.87196 11.8606C6.76797 11.7696 6.70833 11.6381 6.70833 11.5C6.70833 11.3618 6.76797 11.2304 6.87196 11.1394L10.7053 7.7852C10.9045 7.61093 11.2072 7.63111 11.3814 7.83027C11.5557 8.02943 11.5355 8.33215 11.3364 8.50642L7.91515 11.5L11.3364 14.4935C11.5355 14.6678 11.5557 14.9705 11.3814 15.1697Z" clip-rule="evenodd"/><path fill="#fff" fill-rule="evenodd" d="M16.2915 11.5C16.2915 11.7647 16.077 11.9792 15.8123 11.9792L8.14567 11.9792C7.88103 11.9792 7.6665 11.7647 7.6665 11.5C7.6665 11.2354 7.88103 11.0209 8.14567 11.0209L15.8123 11.0209C16.077 11.0209 16.2915 11.2354 16.2915 11.5Z" clip-rule="evenodd"/></svg>