<svg width="62" height="20" viewBox="0 0 62 20" fill="none" xmlns="http://www.w3.org/2000/svg">
<g clip-path="url(#clip0_0_295)">
<path d="M26.722 19.7115H21.7266L24.8511 0.350945H29.8462L26.722 19.7115Z" fill="white"/>
<path d="M44.8311 0.824255C43.8458 0.432522 42.283 0 40.3506 0C35.4175 0 31.9436 2.63619 31.9223 6.40515C31.8813 9.18588 34.4095 10.7304 36.3003 11.6575C38.233 12.605 38.89 13.2234 38.89 14.0679C38.8703 15.3649 37.3283 15.9628 35.89 15.9628C33.8956 15.9628 32.827 15.6545 31.203 14.9329L30.5452 14.6236L29.8462 18.9696C31.0178 19.5045 33.1764 19.9792 35.4175 20C40.659 20 44.0714 17.4046 44.1119 13.3882C44.1318 11.1842 42.7968 9.49549 39.9187 8.11552C38.1715 7.22968 37.1015 6.63236 37.1015 5.72598C37.122 4.902 38.0066 4.05803 39.9788 4.05803C41.6028 4.0167 42.796 4.40788 43.6999 4.79934L44.1518 5.00493L44.8311 0.824255Z" fill="white"/>
<path d="M51.4705 12.8527C51.8818 11.7405 53.4649 7.43581 53.4649 7.43581C53.4441 7.47714 53.8754 6.30304 54.1221 5.58226L54.4712 7.25048C54.4712 7.25048 55.4172 11.8848 55.6226 12.8527C54.8419 12.8527 52.4571 12.8527 51.4705 12.8527ZM57.6367 0.350945H53.7727C52.5812 0.350945 51.6759 0.700794 51.1618 1.9573L43.7417 19.7112H48.9833C48.9833 19.7112 49.8462 17.3217 50.0317 16.807C50.6067 16.807 55.7057 16.807 56.4454 16.807C56.5888 17.4867 57.0415 19.7112 57.0415 19.7112H61.6667L57.6367 0.350945Z" fill="white"/>
<path d="M17.5545 0.350945L12.6623 13.553L12.1277 10.8754C11.2232 7.78593 8.38667 4.42924 5.22119 2.7602L9.70225 19.6909H14.9848L22.8367 0.350945H17.5545Z" fill="white"/>
<path d="M8.11939 0.350945H0.0822234L0 0.74213C6.26949 2.34876 10.4216 6.22146 12.1276 10.8763L10.3804 1.97837C10.0928 0.741856 9.20878 0.391733 8.11939 0.350945Z" fill="#01E6B2"/>
</g>
<defs>
<clipPath id="clip0_0_295">
<rect width="61.6667" height="20" fill="white"/>
</clipPath>
</defs>
</svg>
