<svg width="20" height="20" viewBox="0 0 20 20" fill="none" xmlns="http://www.w3.org/2000/svg">
<path fill-rule="evenodd" clip-rule="evenodd" d="M7.48742 4.1987C7.41602 3.69756 6.98593 3.32752 6.48002 3.3334L6.47518 3.33346L4.34336 3.33343C4.34263 3.33351 4.33722 3.33389 4.32081 3.33553C4.31974 3.33564 4.31857 3.33576 4.31732 3.33588C4.30184 3.33745 4.27286 3.34038 4.23971 3.3414C3.69187 3.39477 3.28864 3.87997 3.33976 4.4251C3.56644 6.55885 4.29403 8.60377 5.45808 10.3984L5.46012 10.4015C6.51897 12.0666 7.93337 13.4809 9.60633 14.5397L9.61027 14.5422C11.4047 15.7061 13.4508 16.4263 15.5792 16.6609C15.5897 16.6621 15.6002 16.6637 15.6106 16.6656C15.6122 16.6658 15.615 16.666 15.6191 16.6662C15.6311 16.6667 15.6447 16.6668 15.6668 16.6668C16.2169 16.6668 16.6668 16.2148 16.6668 15.6584V13.5155C16.6787 13.001 16.308 12.5693 15.8057 12.5051L15.8031 12.5047C15.0889 12.4089 14.3922 12.2347 13.7133 11.9823L13.7081 11.9804C13.3453 11.8399 12.9282 11.928 12.6531 12.2031L12.6518 12.2044L11.7434 13.1044C11.6106 13.2361 11.4063 13.263 11.2438 13.1704C9.39633 12.1172 7.86727 10.5971 6.8132 8.74812C6.71987 8.58441 6.74804 8.37842 6.88191 8.24578L7.78777 7.34824C8.05593 7.07259 8.14509 6.65247 8.00963 6.28697M7.48742 4.1987C7.58327 4.91232 7.75744 5.60865 8.00963 6.28697L7.48742 4.1987ZM6.47291 2.5001C7.39878 2.49061 8.18372 3.1695 8.31276 4.08352L8.31316 4.08637C8.40069 4.73884 8.55978 5.3754 8.79073 5.99656C9.03811 6.66341 8.87815 7.42555 8.38129 7.93321L8.37682 7.93778L7.69876 8.60955C8.61538 10.1142 9.87817 11.3704 11.3849 12.2865L12.0639 11.6138C12.0641 11.6136 12.0643 11.6134 12.0645 11.6132C12.5721 11.1061 13.3365 10.9442 14.0061 11.2021C14.6261 11.4324 15.2615 11.5912 15.9127 11.6786C16.8414 11.7981 17.5191 12.5967 17.5002 13.5296V15.6584C17.5002 16.6687 16.6835 17.5001 15.6668 17.5001C15.6648 17.5001 15.6625 17.5001 15.6599 17.5001C15.6264 17.5002 15.5508 17.5004 15.474 17.4877C13.2248 17.2376 11.0599 16.4754 9.15872 15.2426C7.38308 14.1185 5.8819 12.6172 4.75794 10.8503C3.52299 8.94588 2.75104 6.77552 2.51084 4.51071L2.51039 4.50648C2.41305 3.48987 3.16968 2.59605 4.18151 2.50993M6.47291 2.5001H4.34185C4.29953 2.5001 4.26034 2.50406 4.24137 2.50598C4.24012 2.50611 4.23896 2.50623 4.23789 2.50633C4.22125 2.508 4.21592 2.50837 4.2153 2.50843" fill="black"/>
</svg>
