<svg xmlns="http://www.w3.org/2000/svg" width="40" height="38" fill="none" viewBox="0 0 40 38"><mask id="path-1-inside-1_0_508" fill="#fff"><path d="M20.8335 16.6812V18.2273C21.2664 18.1032 21.4518 17.8565 21.4518 17.4849C21.4518 17.2995 21.3898 17.1761 21.3285 17.052C21.2664 16.8666 21.081 16.7432 20.8335 16.6812Z"/></mask><path fill="#fff" d="M20.8335 16.6812L21.0767 15.7112L19.8335 15.3994V16.6812H20.8335ZM20.8335 18.2273H19.8335V19.5543L21.1091 19.1886L20.8335 18.2273ZM21.3285 17.052L20.3802 17.3694L20.4017 17.4339L20.4319 17.4948L21.3285 17.052ZM19.8335 16.6812V18.2273H21.8335V16.6812H19.8335ZM21.1091 19.1886C21.4517 19.0904 21.8119 18.9108 22.0811 18.5795C22.3589 18.2377 22.4518 17.843 22.4518 17.4849H20.4518C20.4518 17.4953 20.4505 17.4776 20.4615 17.4421C20.4735 17.4039 20.4955 17.3595 20.5289 17.3183C20.5971 17.2344 20.6481 17.2402 20.5579 17.2661L21.1091 19.1886ZM22.4518 17.4849C22.4518 17.0446 22.2874 16.7353 22.2251 16.6092L20.4319 17.4948C20.436 17.5031 20.4393 17.5099 20.4427 17.5168C20.446 17.5235 20.4488 17.5293 20.4514 17.5346C20.4566 17.5453 20.46 17.5526 20.4625 17.5581C20.4673 17.5688 20.4668 17.5686 20.4644 17.5617C20.4619 17.5539 20.4582 17.5412 20.4555 17.5252C20.4542 17.5175 20.4532 17.51 20.4526 17.5029C20.452 17.4958 20.4518 17.4897 20.4518 17.4849H22.4518ZM22.2768 16.7346C22.0555 16.0736 21.4619 15.8078 21.0767 15.7112L20.5903 17.6511C20.6259 17.66 20.6075 17.6618 20.5628 17.6294C20.5118 17.5923 20.4269 17.5089 20.3802 17.3694L22.2768 16.7346Z" mask="url(#path-1-inside-1_0_508)"/><mask id="path-3-inside-2_0_508" fill="#fff"><path d="M18.9785 13.5896C18.9785 13.8991 19.1639 14.1458 19.5348 14.3313V12.9092C19.1639 13.0333 18.9785 13.2187 18.9785 13.5896Z"/></mask><path fill="#fff" d="M19.5348 14.3313L19.0876 15.2257L20.5348 15.9493V14.3313H19.5348ZM19.5348 12.9092H20.5348V11.52L19.2174 11.9609L19.5348 12.9092ZM17.9785 13.5896C17.9785 14.4087 18.5134 14.9386 19.0876 15.2257L19.982 13.4368C19.8898 13.3907 19.8906 13.371 19.9174 13.4068C19.9322 13.4264 19.9494 13.4559 19.962 13.4938C19.9746 13.5317 19.9785 13.5655 19.9785 13.5896H17.9785ZM20.5348 14.3313V12.9092H18.5348V14.3313H20.5348ZM19.2174 11.9609C18.9538 12.0491 18.6194 12.2013 18.3581 12.5063C18.0747 12.8371 17.9785 13.2264 17.9785 13.5896H19.9785C19.9785 13.5793 19.9799 13.6054 19.9645 13.6527C19.9478 13.7042 19.9183 13.7592 19.877 13.8074C19.8012 13.8959 19.7449 13.8934 19.8522 13.8575L19.2174 11.9609Z" mask="url(#path-3-inside-2_0_508)"/><path stroke="#fff" d="M9.76719 26.5708L9.83214 26.013H9.27055H8.21932C7.00394 26.013 5.99854 25.0542 5.99854 23.7922V7.22078C5.99854 6.01279 7.01133 5 8.21932 5H31.8398C33.0522 5 34.0486 6.01228 33.999 7.19989L33.9985 7.21033V7.22078V23.8543C33.9985 25.0616 32.9857 26.0751 31.7778 26.0751H17.3088H17.0739L16.9239 26.2558C15.8769 27.5181 14.667 28.9112 13.4462 30.132C12.2324 31.3458 11.0371 32.3592 10.0007 32.9151C9.82258 32.9733 9.72512 33 9.64139 33C9.54396 33 9.39851 32.9437 9.23914 32.837L9.23797 32.8362C9.04941 32.7108 8.92313 32.4182 8.96174 32.1489L8.9668 32.1136V32.1093L8.96701 32.1078C8.97031 32.0856 8.97544 32.0526 8.98245 32.0085C8.99355 31.9386 9.00865 31.8451 9.02725 31.73L9.04246 31.6358C9.09369 31.3185 9.16536 30.8728 9.24674 30.3455C9.4094 29.2917 9.61139 27.909 9.76719 26.5708ZM8.96407 32.1284L8.96421 32.1274C8.96376 32.1317 8.96343 32.1341 8.96342 32.1339C8.96342 32.1337 8.9636 32.132 8.96407 32.1284ZM23.1036 19.4469L23.1039 19.4466C23.7119 18.8386 23.9307 18.1445 23.9307 17.2994C23.9307 16.4796 23.7243 15.7527 23.1377 15.2501C22.6951 14.871 22.0685 14.5712 21.3333 14.3325V13.6258C21.5568 13.7361 21.7848 13.8772 22.0176 14.0517L22.4405 14.3685L22.7335 13.9288L23.7227 12.4447L23.9818 12.0559L23.6115 11.7711C22.8723 11.2025 22.0852 10.8729 21.3333 10.7024V10.4978V9.99783H20.8333H19.5346H19.0346V10.4978V10.6799C18.3312 10.8174 17.7568 11.1356 17.3261 11.5664C16.7908 12.1016 16.5 12.8512 16.5 13.6515C16.5 14.4106 16.707 15.1275 17.2782 15.626C17.7326 16.0737 18.3304 16.3376 19.0346 16.5592V17.2862C18.7608 17.1268 18.4556 16.9045 18.1382 16.6189L17.7505 16.2702L17.4183 16.6721L16.243 18.0942L15.9423 18.458L16.2882 18.7791C17.1176 19.549 18.0516 20.006 19.0346 20.2415V20.7626V21.2626H19.5346H20.8333H21.3333V20.7626V20.3378C22.0243 20.216 22.6123 19.9375 23.1036 19.4469Z"/></svg>